<svg width="72" height="73" viewBox="0 0 72 73" fill="none" xmlns="http://www.w3.org/2000/svg">
<path d="M18.3608 2.32812C16.295 2.32812 14.6764 3.53145 14.6764 5.06764V8.08039H7.92456C6.73958 8.08177 5.60353 8.55312 4.76563 9.39104C3.92773 10.229 3.45642 11.365 3.45508 12.55V66.2063C3.45698 67.3908 3.9286 68.5261 4.7665 69.3632C5.60439 70.2004 6.74013 70.671 7.92456 70.6719H64.0803C65.2643 70.6705 66.3993 70.1996 67.2365 69.3625C68.0736 68.5253 68.5445 67.3903 68.5459 66.2063V12.55C68.5451 11.3656 68.0745 10.2298 67.2373 9.39186C66.4001 8.55393 65.2648 8.08229 64.0803 8.08039H57.3243V5.06764C57.3243 3.53145 55.7071 2.32812 53.644 2.32812C51.5781 2.32812 49.9596 3.53145 49.9596 5.06764V8.08039H39.6849V5.06764C39.6849 3.53145 38.0664 2.32812 36.0005 2.32812C33.9346 2.32812 32.3161 3.53145 32.3161 5.06764V8.08039H22.0449V5.06764C22.045 3.53145 20.4267 2.32812 18.3608 2.32812ZM16.9264 5.08437C16.9945 4.937 17.5115 4.57812 18.3608 4.57812C19.21 4.57812 19.7269 4.937 19.7951 5.08437V8.08039H16.9264V5.08437ZM5.70452 22.1422H66.2959V55.618H57.9099C57.6115 55.618 57.3253 55.7365 57.1144 55.9475C56.9034 56.1585 56.7849 56.4446 56.7849 56.743V65.1294H7.92456C7.33602 65.1288 6.77176 64.8947 6.35565 64.4785C5.93954 64.0622 5.70556 63.4979 5.70508 62.9094L5.70452 22.1422ZM64.7044 57.868L59.0349 63.5381V57.8677L64.7044 57.868ZM64.0803 68.4219H7.92456C7.44713 68.4216 6.98249 68.2675 6.5994 67.9826C6.21631 67.6977 5.93513 67.297 5.79747 66.8398C6.45025 67.1946 7.18159 67.3801 7.92456 67.3791H57.9099C58.2083 67.3791 58.4944 67.2606 58.7055 67.0497L66.2963 59.4587V66.2063C66.2956 66.7938 66.0619 67.357 65.6465 67.7724C65.2311 68.1877 64.6678 68.4213 64.0803 68.4219ZM52.2098 5.08437C52.2768 4.93742 52.7932 4.57883 53.6441 4.57883C54.4927 4.57883 55.0082 4.93742 55.0744 5.08423V8.08039H52.2099L52.2098 5.08437ZM34.5661 5.08437C34.6343 4.93714 35.1513 4.57812 36.0005 4.57812C36.8497 4.57812 37.3665 4.937 37.4349 5.08437V8.08039H34.5661V5.08437ZM36.0005 15.0983C36.2989 15.0983 36.585 14.9798 36.796 14.7688C37.007 14.5578 37.1255 14.2716 37.1255 13.9733C37.1255 13.6749 37.007 13.3888 36.796 13.1778C36.585 12.9668 36.2989 12.8483 36.0005 12.8483C35.1545 12.8483 34.6364 12.4888 34.5661 12.3406V10.3304H49.9598V12.3586C49.9598 13.8948 51.5781 15.0981 53.6441 15.0981C53.9425 15.0981 54.2287 14.9796 54.4396 14.7686C54.6506 14.5577 54.7691 14.2715 54.7691 13.9731C54.7691 13.6748 54.6506 13.3886 54.4396 13.1776C54.2287 12.9667 53.9425 12.8481 53.6441 12.8481C52.7963 12.8481 52.2788 12.489 52.2098 12.3412V10.3302H64.0803C64.6683 10.3314 65.2317 10.5658 65.6471 10.9819C66.0624 11.398 66.2958 11.9619 66.2959 12.5499V19.8922H5.70508V12.55C5.70567 11.9615 5.9397 11.3973 6.3558 10.9812C6.7719 10.5651 7.33609 10.331 7.92456 10.3304H14.6767V12.3586C14.6767 13.8948 16.295 15.0981 18.361 15.0981C18.6594 15.0981 18.9456 14.9796 19.1565 14.7686C19.3675 14.5577 19.486 14.2715 19.486 13.9731C19.486 13.6748 19.3675 13.3886 19.1565 13.1776C18.9456 12.9667 18.6594 12.8481 18.361 12.8481C17.515 12.8481 16.997 12.4887 16.9267 12.3405V10.3304H32.3161V12.3586C32.3161 13.8948 33.9346 15.0983 36.0005 15.0983ZM26.6365 35.5242H32.361C32.6593 35.5242 32.9455 35.4057 33.1565 35.1947C33.3674 34.9837 33.486 34.6976 33.486 34.3992V29.3485C33.486 29.0501 33.3674 28.764 33.1565 28.553C32.9455 28.342 32.6593 28.2235 32.361 28.2235H26.6365C26.3382 28.2235 26.052 28.342 25.8411 28.553C25.6301 28.764 25.5115 29.0501 25.5115 29.3485V34.3992C25.5115 34.6976 25.6301 34.9837 25.8411 35.1947C26.052 35.4057 26.3382 35.5242 26.6365 35.5242ZM27.7615 30.4735H31.236V33.2742H27.7615V30.4735ZM39.64 35.5242H45.3643C45.6627 35.5242 45.9488 35.4057 46.1598 35.1947C46.3708 34.9837 46.4893 34.6976 46.4893 34.3992V29.3485C46.4893 29.0501 46.3708 28.764 46.1598 28.553C45.9488 28.342 45.6627 28.2235 45.3643 28.2235H39.64C39.3416 28.2235 39.0555 28.342 38.8445 28.553C38.6335 28.764 38.515 29.0501 38.515 29.3485V34.3992C38.515 34.6976 38.6335 34.9837 38.8445 35.1947C39.0555 35.4057 39.3416 35.5242 39.64 35.5242ZM40.765 30.4735H44.2393V33.2742H40.765V30.4735ZM13.6331 47.8819H19.3613C19.6597 47.8819 19.9458 47.7634 20.1568 47.5524C20.3678 47.3414 20.4863 47.0553 20.4863 46.7569V41.7102C20.4863 41.4118 20.3678 41.1256 20.1568 40.9147C19.9458 40.7037 19.6597 40.5852 19.3613 40.5852H13.6331C13.3347 40.5852 13.0486 40.7037 12.8376 40.9147C12.6266 41.1256 12.5081 41.4118 12.5081 41.7102V46.7569C12.5081 47.0553 12.6266 47.3414 12.8376 47.5524C13.0486 47.7634 13.3347 47.8819 13.6331 47.8819ZM14.7581 42.8352H18.2363V45.6319H14.7581V42.8352ZM26.6365 47.8819H32.361C32.6593 47.8819 32.9455 47.7634 33.1565 47.5524C33.3674 47.3414 33.486 47.0553 33.486 46.7569V41.7102C33.486 41.4118 33.3674 41.1256 33.1565 40.9147C32.9455 40.7037 32.6593 40.5852 32.361 40.5852H26.6365C26.3382 40.5852 26.052 40.7037 25.8411 40.9147C25.6301 41.1256 25.5115 41.4118 25.5115 41.7102V46.7569C25.5115 47.0553 25.6301 47.3414 25.8411 47.5524C26.052 47.7634 26.3382 47.8819 26.6365 47.8819ZM27.7615 42.8352H31.236V45.6319H27.7615V42.8352ZM39.64 47.8819H45.3643C45.6627 47.8819 45.9488 47.7634 46.1598 47.5524C46.3708 47.3414 46.4893 47.0553 46.4893 46.7569V41.7102C46.4893 41.4118 46.3708 41.1256 46.1598 40.9147C45.9488 40.7037 45.6627 40.5852 45.3643 40.5852H39.64C39.3416 40.5852 39.0555 40.7037 38.8445 40.9147C38.6335 41.1256 38.515 41.4118 38.515 41.7102V46.7569C38.515 47.0553 38.6335 47.3414 38.8445 47.5524C39.0555 47.7634 39.3416 47.8819 39.64 47.8819ZM40.765 42.8352H44.2393V45.6319H40.765V42.8352ZM13.6331 60.2396H19.3613C19.6597 60.2396 19.9458 60.1211 20.1568 59.9101C20.3678 59.6991 20.4863 59.413 20.4863 59.1146V54.0679C20.4863 53.7695 20.3678 53.4833 20.1568 53.2724C19.9458 53.0614 19.6597 52.9429 19.3613 52.9429H13.6331C13.3347 52.9429 13.0486 53.0614 12.8376 53.2724C12.6266 53.4833 12.5081 53.7695 12.5081 54.0679V59.1146C12.5081 59.413 12.6266 59.6991 12.8376 59.9101C13.0486 60.1211 13.3347 60.2396 13.6331 60.2396ZM14.7581 55.1929H18.2363V57.9896H14.7581V55.1929ZM26.6365 60.2396H32.361C32.6593 60.2396 32.9455 60.1211 33.1565 59.9101C33.3674 59.6991 33.486 59.413 33.486 59.1146V54.0679C33.486 53.7695 33.3674 53.4833 33.1565 53.2724C32.9455 53.0614 32.6593 52.9429 32.361 52.9429H26.6365C26.3382 52.9429 26.052 53.0614 25.8411 53.2724C25.6301 53.4833 25.5115 53.7695 25.5115 54.0679V59.1146C25.5115 59.413 25.6301 59.6991 25.8411 59.9101C26.052 60.1211 26.3382 60.2396 26.6365 60.2396ZM27.7615 55.1929H31.236V57.9896H27.7615V55.1929ZM13.6331 35.5242H19.3613C19.6597 35.5242 19.9458 35.4057 20.1568 35.1947C20.3678 34.9837 20.4863 34.6976 20.4863 34.3992V29.3485C20.4863 29.0501 20.3678 28.764 20.1568 28.553C19.9458 28.342 19.6597 28.2235 19.3613 28.2235H13.6331C13.3347 28.2235 13.0486 28.342 12.8376 28.553C12.6266 28.764 12.5081 29.0501 12.5081 29.3485V34.3992C12.5081 34.6976 12.6266 34.9837 12.8376 35.1947C13.0486 35.4057 13.3347 35.5242 13.6331 35.5242ZM14.7581 30.4735H18.2363V33.2742H14.7581V30.4735ZM58.3679 40.5852H52.6435C52.3451 40.5852 52.0589 40.7037 51.848 40.9147C51.637 41.1256 51.5185 41.4118 51.5185 41.7102V46.7569C51.5185 47.0553 51.637 47.3414 51.848 47.5524C52.0589 47.7634 52.3451 47.8819 52.6435 47.8819H58.3679C58.6662 47.8819 58.9524 47.7634 59.1634 47.5524C59.3743 47.3414 59.4929 47.0553 59.4929 46.7569V41.7102C59.4929 41.4118 59.3743 41.1256 59.1634 40.9147C58.9524 40.7037 58.6662 40.5852 58.3679 40.5852ZM57.2429 45.6319H53.7685V42.8352H57.2429V45.6319ZM39.64 60.2396H45.3643C45.6627 60.2396 45.9488 60.1211 46.1598 59.9101C46.3708 59.6991 46.4893 59.413 46.4893 59.1146V54.0679C46.4893 53.7695 46.3708 53.4833 46.1598 53.2724C45.9488 53.0614 45.6627 52.9429 45.3643 52.9429H39.64C39.3416 52.9429 39.0555 53.0614 38.8445 53.2724C38.6335 53.4833 38.515 53.7695 38.515 54.0679V59.1146C38.515 59.413 38.6335 59.6991 38.8445 59.9101C39.0555 60.1211 39.3416 60.2396 39.64 60.2396ZM40.765 55.1929H44.2393V57.9896H40.765V55.1929ZM51.6916 32.5823C51.5859 32.4784 51.5018 32.3546 51.4441 32.2181C51.3864 32.0816 51.3562 31.935 51.3553 31.7868C51.3545 31.6386 51.3829 31.4917 51.439 31.3545C51.495 31.2173 51.5777 31.0925 51.6821 30.9874C51.7866 30.8822 51.9108 30.7987 52.0476 30.7417C52.1844 30.6847 52.3311 30.6553 52.4793 30.6552C52.6275 30.655 52.7743 30.6842 52.9112 30.7409C53.0481 30.7977 53.1725 30.881 53.2771 30.986L54.7247 32.4236L57.6688 28.9446C57.8616 28.7169 58.1369 28.575 58.4342 28.5502C58.7316 28.5255 59.0266 28.6198 59.2544 28.8126C59.4821 29.0053 59.624 29.2807 59.6488 29.578C59.6735 29.8754 59.5792 30.1704 59.3864 30.3981L55.6552 34.807C55.5548 34.9257 55.4309 35.0222 55.2913 35.0906C55.1518 35.159 54.9995 35.1977 54.8442 35.2043C54.8281 35.2043 54.8117 35.2053 54.7957 35.2053C54.4987 35.2053 54.2136 35.0878 54.0029 34.8785L51.6916 32.5823Z" fill="#294317"/>
</svg>
