<svg width="160" height="22" viewBox="0 0 160 22" fill="none" xmlns="http://www.w3.org/2000/svg">
<path d="M0.500252 10.9841C0.491491 11.2601 0.708135 11.491 0.984138 11.4997L5.48187 11.6425C5.75788 11.6513 5.98872 11.4346 5.99748 11.1586C6.00624 10.8826 5.7896 10.6518 5.5136 10.643L1.51561 10.5161L1.64251 6.51813C1.65127 6.24212 1.43462 6.01128 1.15862 6.00252C0.882616 5.99376 0.651769 6.2104 0.643009 6.4864L0.500252 10.9841ZM159.5 11.0159C159.508 10.7399 159.292 10.509 159.016 10.5003L154.518 10.3575C154.242 10.3487 154.011 10.5654 154.003 10.8414C153.994 11.1174 154.21 11.3482 154.486 11.357L158.484 11.4839L158.357 15.4819C158.349 15.7579 158.565 15.9887 158.841 15.9975C159.117 16.0062 159.348 15.7896 159.357 15.5136L159.5 11.0159ZM80 11L80.1892 10.5372L80 11ZM1 11C1.34216 11.3646 1.34212 11.3646 1.34208 11.3647C1.34207 11.3647 1.34203 11.3647 1.34201 11.3647C1.34197 11.3648 1.34193 11.3648 1.34191 11.3648C1.34186 11.3649 1.34184 11.3649 1.34185 11.3649C1.34187 11.3649 1.34203 11.3647 1.34231 11.3645C1.34287 11.3639 1.34395 11.3629 1.34555 11.3615C1.34873 11.3585 1.35398 11.3537 1.36129 11.347C1.37591 11.3337 1.39879 11.3131 1.42997 11.2856C1.49234 11.2307 1.58791 11.1482 1.71706 11.0416C1.97535 10.8286 2.3679 10.5192 2.89757 10.1411L2.60704 9.73412L2.31651 9.32719C1.76711 9.71943 1.35614 10.043 1.08068 10.2703C0.942949 10.3839 0.839091 10.4734 0.768742 10.5355C0.733566 10.5665 0.706768 10.5906 0.6883 10.6074C0.679066 10.6158 0.671914 10.6224 0.66684 10.627C0.664302 10.6294 0.662284 10.6313 0.660785 10.6327C0.660035 10.6334 0.659415 10.6339 0.658924 10.6344C0.658679 10.6346 0.658466 10.6348 0.658285 10.635C0.658195 10.6351 0.658113 10.6352 0.658039 10.6352C0.658002 10.6353 0.657952 10.6353 0.657934 10.6353C0.657886 10.6354 0.657841 10.6354 1 11ZM6.10496 7.55833L6.3449 7.99699C7.39954 7.42014 8.62498 6.81142 10.0251 6.20723L9.82696 5.74815L9.62885 5.28908C8.1993 5.90598 6.94596 6.52841 5.86502 7.11966L6.10496 7.55833ZM13.6693 4.27449L13.8297 4.74806C15.0449 4.33645 16.3522 3.9426 17.7531 3.58006L17.6278 3.09601L17.5025 2.61196C16.0777 2.98071 14.747 3.38157 13.5089 3.80091L13.6693 4.27449ZM21.6411 2.20145L21.7337 2.69279C23.0179 2.45075 24.3656 2.23776 25.7777 2.06128L25.7157 1.56514L25.6537 1.069C24.221 1.24805 22.8529 1.46424 21.5485 1.7101L21.6411 2.20145ZM29.8177 1.17301L29.8512 1.67188C31.1728 1.58319 32.5429 1.52679 33.962 1.50747L33.9552 1.00751L33.9484 0.507559C32.5115 0.527124 31.1236 0.58424 29.7842 0.674127L29.8177 1.17301ZM38.0641 1.05383L38.0463 1.55351C39.3706 1.60062 40.7331 1.67964 42.1339 1.7938L42.1745 1.29545L42.2151 0.797105C40.7992 0.681711 39.4215 0.601796 38.0819 0.554146L38.0641 1.05383ZM46.2745 1.71869L46.2127 2.21486C47.535 2.37953 48.8885 2.57495 50.2734 2.80346L50.3548 2.31013L50.4362 1.8168C49.0384 1.58616 47.6718 1.38884 46.3363 1.22253L46.2745 1.71869ZM54.4095 3.05712L54.31 3.54711C55.6201 3.81326 56.9563 4.10843 58.3188 4.43438L58.4351 3.9481L58.5515 3.46182C57.178 3.13324 55.8306 2.83558 54.509 2.56712L54.4095 3.05712ZM62.4307 4.97287L62.2988 5.45516C63.5938 5.80932 64.911 6.19072 66.2506 6.60072L66.3969 6.12262L66.5433 5.64451C65.1942 5.23161 63.8674 4.84741 62.5626 4.49058L62.4307 4.97287ZM70.3362 7.38999L70.1765 7.86378C71.4473 8.29231 72.7372 8.74608 74.0462 9.22614L74.2184 8.75671L74.3905 8.28729C73.0734 7.80425 71.7753 7.34756 70.496 6.9162L70.3362 7.38999ZM78.058 10.2194L77.8743 10.6844C78.5154 10.9376 79.1609 11.1971 79.8108 11.4628L80 11L80.1892 10.5372C79.5357 10.27 78.8865 10.009 78.2416 9.75433L78.058 10.2194ZM80 11L79.8108 11.4628C80.4643 11.73 81.1135 11.991 81.7584 12.2457L81.942 11.7806L82.1257 11.3156C81.4846 11.0624 80.8391 10.8029 80.1892 10.5372L80 11ZM85.7816 13.2433L85.6095 13.7127C86.9266 14.1958 88.2247 14.6524 89.504 15.0838L89.6638 14.61L89.8235 14.1362C88.5527 13.7077 87.2628 13.2539 85.9538 12.7739L85.7816 13.2433ZM93.6031 15.8774L93.4567 16.3555C94.8058 16.7684 96.1326 17.1526 97.4374 17.5094L97.5693 17.0271L97.7012 16.5448C96.4062 16.1907 95.089 15.8093 93.7494 15.3993L93.6031 15.8774ZM101.565 18.0519L101.449 18.5382C102.822 18.8668 104.169 19.1644 105.491 19.4329L105.591 18.9429L105.69 18.4529C104.38 18.1867 103.044 17.8916 101.681 17.5656L101.565 18.0519ZM109.645 19.6899L109.564 20.1832C110.962 20.4138 112.328 20.6112 113.664 20.7775L113.725 20.2813L113.787 19.7851C112.465 19.6205 111.112 19.425 109.727 19.1965L109.645 19.6899ZM117.825 20.7045L117.785 21.2029C119.201 21.3183 120.578 21.3982 121.918 21.4459L121.936 20.9462L121.954 20.4465C120.629 20.3994 119.267 20.3204 117.866 20.2062L117.825 20.7045ZM126.045 20.9925L126.052 21.4924C127.488 21.4729 128.876 21.4158 130.216 21.3259L130.182 20.827L130.149 20.3281C128.827 20.4168 127.457 20.4732 126.038 20.4925L126.045 20.9925ZM134.284 20.4349L134.346 20.931C135.779 20.7519 137.147 20.5358 138.452 20.2899L138.359 19.7986L138.266 19.3072C136.982 19.5493 135.634 19.7622 134.222 19.9387L134.284 20.4349ZM142.372 18.904L142.497 19.388C143.922 19.0193 145.253 18.6184 146.491 18.1991L146.331 17.7255L146.17 17.2519C144.955 17.6635 143.648 18.0574 142.247 18.4199L142.372 18.904ZM150.173 16.2518L150.371 16.7109C151.801 16.094 153.054 15.4716 154.135 14.8803L153.895 14.4417L153.655 14.003C152.6 14.5799 151.375 15.1886 149.975 15.7928L150.173 16.2518ZM157.393 12.2659L157.683 12.6728C158.233 12.2806 158.644 11.957 158.919 11.7297C159.057 11.6161 159.161 11.5266 159.231 11.4645C159.266 11.4335 159.293 11.4094 159.312 11.3926C159.321 11.3842 159.328 11.3776 159.333 11.373C159.336 11.3706 159.338 11.3687 159.339 11.3673C159.34 11.3666 159.341 11.3661 159.341 11.3656C159.341 11.3654 159.342 11.3652 159.342 11.365C159.342 11.3649 159.342 11.3648 159.342 11.3648C159.342 11.3647 159.342 11.3647 159.342 11.3647C159.342 11.3646 159.342 11.3646 159 11C158.658 10.6354 158.658 10.6354 158.658 10.6353C158.658 10.6353 158.658 10.6353 158.658 10.6353C158.658 10.6352 158.658 10.6352 158.658 10.6352C158.658 10.6351 158.658 10.6351 158.658 10.6351C158.658 10.6351 158.658 10.6353 158.658 10.6355C158.657 10.6361 158.656 10.6371 158.654 10.6385C158.651 10.6415 158.646 10.6463 158.639 10.653C158.624 10.6663 158.601 10.6869 158.57 10.7144C158.508 10.7693 158.412 10.8518 158.283 10.9584C158.025 11.1714 157.632 11.4808 157.102 11.8589L157.393 12.2659Z" fill="#294317"/>
</svg>
