<svg width="24" height="24" viewBox="0 0 24 24" fill="none" xmlns="http://www.w3.org/2000/svg">
<g clip-path="url(#clip0_6433_2105)">
<path d="M17.6059 10.4066C17.5871 9.99414 17.2684 9.67539 16.8371 9.67539C16.4246 9.67539 16.0871 10.0129 16.0871 10.4254C16.0871 10.8379 16.4246 11.1754 16.8371 11.1754C17.0434 11.1754 17.2496 11.1004 17.3809 10.9504C17.5309 10.8191 17.6059 10.6129 17.6059 10.4066ZM17.9809 6.90039L18.2059 6.69414C18.7871 6.18789 19.4059 5.62539 19.4246 4.85664C19.4246 4.33164 19.1809 3.78789 18.7309 3.41289C18.2621 3.00039 17.6246 2.77539 16.9121 2.77539C15.6934 2.77539 14.3996 3.46914 14.2871 4.80039C14.2871 4.89414 14.2871 4.93164 14.3996 4.93164C14.7184 4.96914 15.0371 5.00664 15.3371 5.04414C15.4121 5.06289 15.4496 5.06289 15.4871 5.06289C15.5621 5.06289 15.5809 5.04414 15.6371 4.85664C15.8059 4.27539 16.2559 3.93789 16.8184 3.93789C17.2496 3.93789 17.6621 4.16289 17.8309 4.48164C17.9434 4.68789 17.9996 5.02539 17.6809 5.45664C17.5121 5.70039 17.2871 5.86914 17.0621 6.01914C16.7809 6.22539 16.4996 6.43164 16.3496 6.78789C16.1434 7.25664 16.1434 7.89414 16.1621 8.45664C16.1621 8.53164 16.1809 8.56914 16.2559 8.56914H17.3246C17.4184 8.56914 17.4371 8.55039 17.4559 8.55039C17.4746 8.53164 17.4746 8.49414 17.4746 8.43789C17.4746 8.13789 17.4934 7.87539 17.5121 7.63164C17.5121 7.31289 17.7559 7.10664 17.9809 6.90039Z" fill="#76C043"/>
<path d="M13.2003 12.2448H13.2378L13.2753 12.2636C13.8378 12.6386 14.4378 12.9198 15.094 13.1073C17.2503 13.7261 19.519 13.1823 21.169 11.6448C22.0128 10.8573 22.6315 9.84481 22.9503 8.71981C23.419 7.08856 23.2128 5.36356 22.3878 3.88231C21.5815 2.40106 20.2315 1.31356 18.6003 0.863559C16.444 0.244809 14.1565 0.788559 12.5065 2.32606C11.6628 3.11356 11.044 4.12606 10.7253 5.25106C10.2753 6.80731 10.444 8.47606 11.194 9.91981L11.2315 9.99481L11.1565 10.0511C11.119 10.0886 11.0815 10.1261 11.0065 10.1636L10.0878 10.8761C9.80651 11.0823 9.80652 11.3261 9.82527 11.4573C9.88152 11.7386 10.144 11.9448 10.6128 12.0948L10.669 12.1136C11.1753 12.2636 11.6253 12.3198 12.0565 12.3386H12.4128C12.6753 12.3198 12.919 12.2823 13.2003 12.2448ZM12.2065 11.4573H12.0753C11.8315 11.4573 11.5503 11.4198 11.2503 11.3448L11.0065 11.2886L11.5503 10.8573C11.6815 10.7636 11.8503 10.6323 11.9628 10.4636C12.094 10.2573 12.1503 10.0323 12.094 9.78856L12.0753 9.73231L12.0378 9.63856C11.3253 8.36356 11.1565 6.86356 11.5503 5.45731C11.8315 4.48231 12.3565 3.61981 13.0878 2.94481C14.5315 1.63231 16.5003 1.16356 18.3565 1.68856C21.2628 2.51356 22.969 5.56981 22.144 8.47606C21.8628 9.45106 21.3378 10.3136 20.6065 10.9886C19.5753 11.9448 18.244 12.4698 16.8753 12.4698C16.369 12.4698 15.8628 12.3948 15.3565 12.2636C14.7565 12.0948 14.194 11.8323 13.6878 11.4761L13.6315 11.4386L13.4815 11.3823C13.3128 11.3448 13.1628 11.3448 13.0315 11.3823C12.8065 11.4198 12.6003 11.4386 12.394 11.4573H12.2065Z" fill="#76C043"/>
<path d="M16.4066 18.7305L16.5378 19.3492L8.73783 23.3992L8.40033 22.6867C8.25033 22.368 8.10033 22.0492 7.93158 21.7305C7.48158 20.8305 7.21908 20.6805 6.63783 20.6805C6.46908 20.6805 6.26283 20.6992 6.00033 20.7367C5.73783 20.7742 5.45658 20.793 5.15658 20.793C4.72533 20.793 4.29408 20.7555 3.91908 20.718C3.50658 20.6805 3.16908 20.5117 2.96283 20.2492C2.81283 20.0617 2.62533 19.7242 2.68158 19.1992C2.73783 18.6555 2.64408 18.243 2.41908 17.7742C2.34408 17.6242 2.26908 17.4367 2.21283 17.2305L2.02533 16.3117C1.98783 16.0492 1.95033 15.8242 1.89408 15.618L1.83783 15.543L1.78158 15.5055C1.44408 15.393 1.01283 15.2055 0.84408 14.8117C0.67533 14.3992 0.82533 13.9867 0.97533 13.6492C1.08783 13.3867 1.23783 13.143 1.36908 12.8992C1.55658 12.5617 1.72533 12.243 1.85658 11.9055C2.00658 11.4742 2.04408 11.0617 1.96908 10.8367C1.18158 8.47422 1.63158 6.31797 3.28158 4.42422C4.85658 2.60547 7.57533 1.48047 10.3878 1.48047C10.8753 1.48047 11.3628 1.51797 11.8316 1.59297C10.8566 2.51172 10.1253 3.67422 9.76908 4.96797C9.31908 6.54297 9.41283 8.19297 9.99408 9.69297L9.48783 10.068C8.98158 10.443 8.73783 11.043 8.85033 11.643C8.94408 12.1117 9.26283 12.7492 10.3503 13.068L10.4066 13.0867C10.9878 13.2555 11.5503 13.3305 12.0378 13.3492H12.4691C12.6566 13.3492 12.8441 13.3305 13.0128 13.3117C13.5753 13.6492 14.1941 13.9117 14.8316 14.0992C15.5066 14.2867 16.2003 14.3805 16.8753 14.3805C17.0253 14.3805 17.1941 14.3805 17.3441 14.3617C16.6878 15.6555 16.1253 16.893 16.3128 18.2617C16.3316 18.4117 16.3503 18.5617 16.4066 18.7305Z" fill="#76C043"/>
</g>
<defs>
<clipPath id="clip0_6433_2105">
<rect width="24" height="24" fill="white"/>
</clipPath>
</defs>
</svg>
