<svg width="72" height="72" viewBox="0 0 72 72" fill="none" xmlns="http://www.w3.org/2000/svg">
<path d="M40.1203 5.90625C39.0375 6.13125 38.4609 6.58125 35.5781 9.47813L32.6953 12.375H29.7141H26.7188L27.5766 10.6594C28.9828 7.86094 28.8141 7.45312 26.2406 7.45312C24.3984 7.45312 23.3297 7.69219 22.3734 8.31094C22.0078 8.56406 20.9812 9.57656 20.1094 10.5609L18.5344 12.375H14.2172C10.8703 12.375 9.71719 12.4313 9.01406 12.5859C5.85 13.3313 3.51562 16.3266 3.51562 19.6172C3.51562 20.2078 3.58594 20.4609 3.79688 20.6719C4.07812 20.9531 4.26094 20.9531 19.3359 20.9531C34.2141 20.9531 34.6078 20.9531 35.325 20.6719C35.7891 20.5031 36.3094 20.1516 36.6609 19.8C37.3359 19.1109 43.8469 7.65 43.9734 6.96094C44.0156 6.66563 43.9594 6.42656 43.7625 6.1875C43.5094 5.87813 43.3828 5.85 42.1031 5.80781C41.3297 5.79375 40.4437 5.83594 40.1203 5.90625ZM41.0625 7.97344C41.0484 8.04375 39.7687 10.3641 38.1937 13.1484C36 17.0438 35.2266 18.2812 34.875 18.5203L34.4109 18.8438H20.0953H5.76562V18.5203C5.76562 18.0281 6.38437 16.8609 7.01719 16.1438C7.38281 15.7359 7.95937 15.3 8.55 15.0188L9.49219 14.5547L14.2734 14.5125C16.9031 14.4984 19.1953 14.4563 19.3641 14.4141C19.5328 14.3719 20.4891 13.4016 21.5016 12.2484C23.4562 10.0266 23.8781 9.70312 25.0734 9.59063L25.7484 9.52031L24.8344 11.3766C24.3281 12.3891 23.9062 13.3453 23.9062 13.5C23.9062 13.6688 24.0609 13.95 24.2578 14.1328L24.5953 14.4844H29.0672H33.525L36.6328 11.3766C38.9391 9.09844 39.8953 8.22656 40.3031 8.08594C40.95 7.86094 41.0625 7.83281 41.0625 7.97344Z" fill="#294317"/>
<path d="M51.328 8.84492C50.3577 9.14024 49.6265 9.75899 49.1343 10.6871C48.8811 11.1652 48.8671 11.798 48.8671 25.8043C48.8671 42.2434 48.7968 41.2309 49.9218 42.2434C50.7936 43.0309 51.5108 43.1715 54.8015 43.1715H57.6561V45.3512V47.5309H55.0405C52.0874 47.5309 51.7077 47.6293 51.103 48.5012L50.7655 49.0074V56.8262V64.6449L51.089 65.109C51.2577 65.3762 51.6233 65.7137 51.8905 65.8684C52.3686 66.1496 52.6218 66.1637 58.2186 66.2059C64.9265 66.2621 65.2499 66.2199 66.0093 65.3902C66.2765 65.0949 66.5436 64.6309 66.5858 64.3777C66.628 64.1246 66.6561 60.5527 66.628 56.4324C66.5858 49.1059 66.5858 48.9512 66.2905 48.5574C66.1358 48.3465 65.7843 48.023 65.5311 47.8543C65.0952 47.5449 64.9405 47.5309 62.4233 47.5309H59.7655V45.3652V43.1996L62.9015 43.1434C66.3749 43.1012 66.5015 43.059 67.528 42.0746C68.5405 41.1043 68.4983 41.948 68.4561 25.6496L68.414 11.0387L68.0343 10.3918C67.6124 9.67461 66.853 9.09805 66.0233 8.87305C65.3765 8.69024 51.8905 8.67617 51.328 8.84492ZM66.0374 11.2918L66.3749 11.6856V25.8043C66.3749 34.4527 66.3186 40.0496 66.2343 40.2746C65.939 41.0621 65.8686 41.0762 58.4999 41.034L51.7499 40.9918L51.3702 40.598L50.9765 40.2184L50.9343 26.2543C50.9061 16.5371 50.9343 12.1496 51.0468 11.784C51.328 10.8137 51.1452 10.8277 58.8233 10.8699L65.6999 10.898L66.0374 11.2918ZM64.5468 52.734V55.8277H58.7108H52.8749V52.734V49.6402H58.7108H64.5468V52.734ZM64.5186 60.9887L64.4765 64.0543H58.7108H52.9452L52.903 60.9887L52.8749 57.9371H58.7108H64.5468L64.5186 60.9887Z" fill="#294317"/>
<path d="M57.9372 16.875C57.3044 17.5078 57.7544 18.7031 58.6263 18.7031C59.2591 18.7031 59.6809 18.2812 59.6809 17.6484C59.6809 16.7203 58.5841 16.2281 57.9372 16.875Z" fill="#294317"/>
<path d="M55.125 21.5153C54.9703 21.67 54.8438 21.9794 54.8438 22.2184C54.8438 22.9637 55.2516 23.2028 56.5312 23.2028H57.6562L57.6844 28.9825L57.7266 34.7762L58.1062 35.0575C58.4156 35.2965 58.5703 35.3106 58.95 35.2122C59.7656 34.9731 59.7656 34.9731 59.7656 28.1809C59.7656 20.5169 60.0187 21.234 57.2906 21.234C55.5891 21.234 55.3781 21.2622 55.125 21.5153Z" fill="#294317"/>
<path d="M32.2595 24.6797C30.0657 25.1578 27.9423 26.8172 26.9579 28.8281C26.3954 29.9531 26.0157 31.4437 26.0157 32.4844C26.0157 34.1719 26.761 36.1969 27.886 37.575C28.2517 38.025 28.547 38.4187 28.547 38.4469C28.547 38.475 28.2657 38.5453 27.9142 38.5875C26.0579 38.8687 23.597 40.7672 22.6829 42.6094C21.7829 44.3953 21.797 44.2687 21.797 54.45C21.797 64.5609 21.7689 64.2797 22.6126 65.1516C22.8235 65.3766 23.2454 65.7 23.5548 65.8547C24.1173 66.1641 24.1454 66.1641 33.961 66.1641C41.7095 66.1641 43.9173 66.1219 44.3251 65.9812C44.6064 65.8828 45.0985 65.5453 45.4079 65.2219C46.4485 64.1953 46.4345 64.3781 46.3782 54.0422C46.336 45.675 46.3079 44.8594 46.0689 44.1562C45.211 41.5547 43.4954 39.7266 41.1189 38.8687C40.6126 38.6859 40.0501 38.5312 39.8673 38.5312C39.6704 38.5312 39.5157 38.4891 39.5157 38.4469C39.5157 38.4047 39.797 38.0531 40.1485 37.6594C42.3845 35.1703 42.6657 31.0641 40.7954 28.1391C40.2048 27.2391 38.7985 25.9172 37.8704 25.4109C36.2954 24.5672 34.1017 24.2719 32.2595 24.6797ZM36.1407 26.9859C38.3485 27.8297 39.9376 30.1219 39.9376 32.4844C39.9376 36.1828 36.2814 39.0937 32.7798 38.1937C30.3751 37.575 28.6876 35.775 28.2376 33.3281C27.7173 30.5719 29.8407 27.45 32.7376 26.7188C33.5392 26.5219 35.2689 26.6484 36.1407 26.9859ZM36.436 43.1719L35.8032 45.8578L34.0454 45.8156L32.3017 45.7734L31.6829 43.2422C31.3595 41.85 31.0782 40.6687 31.0782 40.5984C31.0782 40.5422 32.4282 40.5 34.0735 40.5H37.0829L36.436 43.1719ZM41.3298 41.3016C42.8064 42.1594 43.8892 43.7906 44.1704 45.5906C44.2548 46.1109 44.2829 49.9078 44.2689 54.9422L44.2267 63.4078L43.9032 63.7312L43.5798 64.0547L34.3407 64.0969C29.2642 64.1109 24.961 64.0969 24.7923 64.0547C24.6235 64.0125 24.3423 63.8438 24.1876 63.675C23.9064 63.3797 23.9064 63.2109 23.9064 54.4219C23.9064 44.7047 23.9064 44.7188 24.6939 43.3687C25.2001 42.5109 26.311 41.5266 27.3235 41.0625C28.8704 40.3172 28.8142 40.275 29.447 43.0031C29.7564 44.2969 30.0235 45.45 30.0517 45.5766C30.0939 45.7312 29.911 45.9 29.4329 46.1391C28.1954 46.7578 28.1954 46.7297 28.1954 52.2422C28.1954 56.8125 28.2095 57.0516 28.4907 57.5156C28.6454 57.7828 28.9829 58.1484 29.2501 58.3172C29.7001 58.6406 29.7845 58.6406 34.0173 58.6406C38.9532 58.6406 39.0517 58.6266 39.6282 57.5156C39.9235 56.9109 39.9376 56.7844 39.9376 52.2844C39.9376 47.3203 39.9095 47.0812 39.2064 46.4344C39.0095 46.2516 38.672 46.0547 38.447 45.9984C38.222 45.9422 38.0392 45.8016 38.0532 45.6891C38.0673 45.5766 38.3345 44.3672 38.6579 43.0031L39.2485 40.5141L39.9798 40.7391C40.3876 40.8516 40.9923 41.1047 41.3298 41.3016ZM37.8282 52.2422V56.5312H34.0314H30.2345V52.3406C30.2345 50.0344 30.2767 48.0938 30.3329 48.0516C30.3751 47.9953 32.0907 47.9531 34.1298 47.9531H37.8282V52.2422Z" fill="#294317"/>
<path d="M4.57031 28.4344C4.1625 28.6594 4.07813 28.8281 4.07813 29.4188C4.07813 30.375 4.06406 30.375 9.66094 30.375C14.4422 30.375 14.6391 30.3609 14.9062 30.0938C15.3281 29.6719 15.2859 28.9266 14.8219 28.5609C14.4562 28.2797 14.2875 28.2656 9.64687 28.2656C6.34219 28.2797 4.76719 28.3219 4.57031 28.4344Z" fill="#294317"/>
<path d="M4.3875 37.4906C4.1625 37.6453 4.07812 37.8422 4.07812 38.2219C4.07812 39.3609 4.12031 39.375 9.675 39.375C14.2875 39.375 14.4562 39.3609 14.8219 39.0797C15.2859 38.7141 15.3281 37.9688 14.9062 37.5469C14.6391 37.2797 14.4422 37.2656 9.66094 37.2656C5.4 37.2656 4.65469 37.2938 4.3875 37.4906Z" fill="#294317"/>
<path d="M4.78141 46.2234C4.31735 46.4062 4.07829 46.7437 4.07829 47.25C4.07829 48.2484 3.96579 48.2344 9.6611 48.2344C14.3861 48.2344 14.7377 48.2203 14.9486 47.9812C15.2861 47.6016 15.258 46.7859 14.8923 46.4625C14.6111 46.2094 14.3017 46.1953 9.78766 46.1672C7.15797 46.1531 4.89391 46.1812 4.78141 46.2234Z" fill="#294317"/>
<path d="M4.35938 55.4062C4.19062 55.575 4.07812 55.8703 4.07812 56.1797C4.07812 56.4891 4.19062 56.7844 4.35938 56.9531C4.62656 57.2203 4.82344 57.2344 9.63281 57.2344C14.4422 57.2344 14.6391 57.2203 14.9062 56.9531C15.075 56.7844 15.1875 56.4891 15.1875 56.1797C15.1875 55.8703 15.075 55.575 14.9062 55.4062C14.6391 55.1391 14.4422 55.125 9.63281 55.125C4.82344 55.125 4.62656 55.1391 4.35938 55.4062Z" fill="#294317"/>
<path d="M4.31755 64.3781C3.98005 64.7578 4.00818 65.5734 4.3738 65.8969C4.65505 66.15 4.95036 66.1641 9.63317 66.1641C14.316 66.1641 14.6113 66.15 14.8925 65.8969C15.2441 65.5734 15.2863 64.8844 14.9629 64.4344L14.7519 64.125H9.64724C4.88005 64.125 4.52849 64.1391 4.31755 64.3781Z" fill="#294317"/>
</svg>
