<svg width="72" height="73" viewBox="0 0 72 73" fill="none" xmlns="http://www.w3.org/2000/svg">
<g clip-path="url(#clip0_6229_213)">
<path d="M1.6488 70.5137C2.72651 71.6273 4.17137 72.3124 5.7156 72.4421C5.80753 72.4735 5.90312 72.4928 6 72.4997H52.8C52.98 72.4998 53.1576 72.4594 53.3199 72.3815C53.4821 72.3036 53.6247 72.1902 53.7372 72.0497L57.6 67.2197L61.4628 72.0485C61.5752 72.1892 61.7177 72.3028 61.88 72.381C62.0422 72.4591 62.2199 72.4996 62.4 72.4997H69.6C70.2365 72.4997 70.847 72.2469 71.2971 71.7968C71.7472 71.3467 72 70.7362 72 70.0997V30.4997C72 29.8632 71.7472 29.2528 71.2971 28.8027C70.847 28.3526 70.2365 28.0997 69.6 28.0997H63.258C65.4468 24.0985 66.6017 19.614 66.618 15.0533C66.618 11.2342 65.1009 7.57151 62.4003 4.87098C59.6998 2.17046 56.0371 0.65332 52.218 0.65332C48.3989 0.65332 44.7362 2.17046 42.0357 4.87098C39.3351 7.57151 37.818 11.2342 37.818 15.0533C37.836 19.6145 38.994 24.0989 41.1852 28.0997H39.6C39.4137 28.0997 39.23 28.1431 39.0634 28.2264C38.8967 28.3097 38.7518 28.4307 38.64 28.5797L36 32.0993L33.36 28.5797C33.2482 28.4307 33.1033 28.3097 32.9367 28.2264C32.77 28.1431 32.5863 28.0997 32.4 28.0997H18V25.6997C18 25.0632 17.7471 24.4528 17.2971 24.0027C16.847 23.5526 16.2365 23.2997 15.6 23.2997H6C5.21185 23.2989 4.43128 23.4536 3.70297 23.7548C2.97466 24.0561 2.31291 24.498 1.7556 25.0553C1.19829 25.6126 0.756367 26.2744 0.455118 27.0027C0.15387 27.731 -0.000786331 28.5116 3.00629e-06 29.2997V66.4997C0.00681251 66.5528 0.0172368 66.6053 0.031203 66.6569C0.0719587 68.099 0.648691 69.4741 1.6488 70.5137ZM41.2884 10.0565C42.4204 7.5525 44.3776 5.51287 46.8328 4.27852C49.288 3.04417 52.0925 2.68989 54.7775 3.27489C57.4625 3.85988 59.8654 5.34871 61.5846 7.49255C63.3038 9.63639 64.2351 12.3053 64.2228 15.0533C64.184 19.8734 62.7811 24.5839 60.1764 28.6397C60.108 28.7597 60.0336 28.8701 59.9592 28.9817L59.88 29.1017C57.8005 32.2735 55.2136 35.0818 52.2228 37.4141C49.2288 35.0793 46.6394 32.2677 44.5584 29.0921L44.4852 28.9841C44.4108 28.8725 44.3364 28.7621 44.2452 28.6073C41.6527 24.56 40.2578 19.862 40.2216 15.0557C40.2148 13.3321 40.5786 11.6272 41.2884 10.0565ZM47.4768 36.4361C48.735 37.7046 50.1 38.8625 51.5568 39.8969C51.7546 40.0298 51.9875 40.1007 52.2258 40.1007C52.4641 40.1007 52.697 40.0298 52.8948 39.8969C54.3434 38.8678 55.7001 37.7151 56.9496 36.4517C57.4436 36.6647 57.8738 37.0022 58.1981 37.4313C58.5225 37.8604 58.7299 38.3664 58.8 38.8997C58.8 40.6025 56.0892 42.4997 52.2 42.4997C48.3108 42.4997 45.6 40.6025 45.6 38.8997C45.6739 38.3621 45.8856 37.8528 46.2144 37.4211C46.5433 36.9895 46.9781 36.6502 47.4768 36.4361ZM35.04 34.8197C35.1518 34.9688 35.2967 35.0897 35.4633 35.173C35.63 35.2563 35.8137 35.2997 36 35.2997C36.1863 35.2997 36.37 35.2563 36.5367 35.173C36.7033 35.0897 36.8482 34.9688 36.96 34.8197L40.2 30.4997H42.6156C43.5736 31.9643 44.6385 33.3561 45.8016 34.6637C45.0508 35.0987 44.4199 35.7136 43.9657 36.4531C43.5116 37.1925 43.2484 38.0333 43.2 38.8997C43.2 42.2597 47.1528 44.8997 52.2 44.8997C57.2472 44.8997 61.2 42.2597 61.2 38.8997C61.1546 38.0374 60.8952 37.1999 60.4452 36.4629C59.9952 35.7259 59.3688 35.1125 58.6224 34.6781C59.7904 33.3643 60.862 31.9679 61.8288 30.4997H69.6V50.7797C69.4992 50.7605 69.3936 50.7497 69.2952 50.7257C68.8994 50.6272 68.5173 50.4801 68.1576 50.2877C67.8112 50.0988 67.4819 49.88 67.1736 49.6337C67.0499 49.5344 66.9077 49.4607 66.7552 49.4167C66.6028 49.3727 66.4431 49.3594 66.2855 49.3776C66.1279 49.3957 65.9755 49.4449 65.837 49.5223C65.6985 49.5997 65.5768 49.7039 65.4788 49.8287C65.3808 49.9534 65.3086 50.0964 65.2662 50.2493C65.2238 50.4022 65.2122 50.562 65.232 50.7194C65.2518 50.8768 65.3026 51.0287 65.3815 51.1664C65.4604 51.304 65.5658 51.4247 65.6916 51.5213C66.1104 51.8549 66.5568 52.1501 67.0272 52.4045C67.827 52.832 68.6995 53.1067 69.6 53.2145V70.0997H62.976L58.536 64.5497C58.4193 64.4158 58.2753 64.3085 58.1136 64.235C57.952 64.1614 57.7764 64.1233 57.5988 64.1233C57.4212 64.1233 57.2457 64.1614 57.084 64.235C56.9223 64.3085 56.7783 64.4158 56.6616 64.5497L52.224 70.0997H25.2V66.4997C25.2 66.1815 25.0736 65.8762 24.8485 65.6512C24.6235 65.4262 24.3183 65.2997 24 65.2997C23.6817 65.2997 23.3765 65.4262 23.1515 65.6512C22.9264 65.8762 22.8 66.1815 22.8 66.4997V70.0997H6.2712C5.73231 70.097 5.19952 69.9855 4.70467 69.7721C4.20983 69.5587 3.7631 69.2477 3.3912 68.8577C3.06173 68.5261 2.80378 68.1304 2.63329 67.6951C2.46281 67.2598 2.38341 66.7941 2.4 66.3269C2.44239 65.4017 2.84057 64.5286 3.51139 63.89C4.18222 63.2514 5.07381 62.8966 6 62.8997H15.6C16.2365 62.8997 16.847 62.6469 17.2971 62.1968C17.7471 61.7467 18 61.1362 18 60.4997V48.6197C18.0996 48.6389 18.2052 48.6497 18.3024 48.6737C18.6983 48.772 19.0804 48.9191 19.44 49.1117C19.7868 49.3001 20.1168 49.5197 20.4252 49.7657C20.5486 49.868 20.6913 49.9446 20.8448 49.9909C20.9983 50.0371 21.1595 50.0522 21.3189 50.0351C21.4783 50.018 21.6326 49.9692 21.7729 49.8915C21.9131 49.8137 22.0363 49.7087 22.1352 49.5826C22.2342 49.4565 22.3069 49.3118 22.349 49.1571C22.3911 49.0024 22.4018 48.8409 22.3804 48.682C22.359 48.5231 22.306 48.3701 22.2246 48.232C22.1431 48.094 22.0348 47.9736 21.906 47.8781C21.4877 47.545 21.0407 47.2494 20.5704 46.9949C19.7719 46.5659 18.9 46.2903 18 46.1825V30.4997H31.8L35.04 34.8197ZM3.4464 26.7581C4.12419 26.0816 5.04235 25.701 6 25.6997H7.2V29.2997C7.2 29.618 7.32643 29.9232 7.55148 30.1483C7.77652 30.3733 8.08174 30.4997 8.4 30.4997C8.71826 30.4997 9.02349 30.3733 9.24853 30.1483C9.47357 29.9232 9.6 29.618 9.6 29.2997V25.6997H15.6V60.4997H12V56.8997C12 56.5815 11.8736 56.2762 11.6485 56.0512C11.4235 55.8262 11.1183 55.6997 10.8 55.6997C10.4817 55.6997 10.1765 55.8262 9.95148 56.0512C9.72643 56.2762 9.6 56.5815 9.6 56.8997V60.4997H6C4.69787 60.5067 3.4337 60.939 2.4 61.7309V29.2997C2.4 28.3481 2.7768 27.4337 3.4464 26.7581Z" fill="#294317"/>
<path d="M52.1376 24.4994C54.0399 24.5165 55.9044 23.9681 57.4944 22.9237C59.0845 21.8793 60.3284 20.386 61.0682 18.6334C61.8081 16.8809 62.0106 14.948 61.65 13.0801C61.2894 11.2122 60.3819 9.49358 59.0429 8.14234C57.7038 6.7911 55.9934 5.86817 54.1289 5.49069C52.2644 5.11322 50.3297 5.29822 48.5705 6.02221C46.8113 6.7462 45.3068 7.97655 44.2481 9.55708C43.1894 11.1376 42.6241 12.9971 42.624 14.8994C42.6157 17.4331 43.6126 19.8666 45.3961 21.6663C47.1796 23.466 49.604 24.4848 52.1376 24.4994ZM52.1376 7.69942C53.5652 7.68229 54.9656 8.08995 56.161 8.87061C57.3563 9.65127 58.2926 10.7697 58.8508 12.0837C59.4091 13.3977 59.564 14.8481 59.296 16.2504C59.0281 17.6527 58.3492 18.9436 57.3458 19.9592C56.3424 20.9748 55.0597 21.6692 53.6607 21.9541C52.2618 22.239 50.8097 22.1015 49.489 21.5592C48.1684 21.0169 47.0387 20.0942 46.2437 18.9084C45.4487 17.7225 45.0241 16.3271 45.024 14.8994C45.0148 13.002 45.7585 11.1783 47.0921 9.82855C48.4257 8.47876 50.2402 7.71306 52.1376 7.69942ZM23.0016 39.5654C23.0891 39.6965 23.2015 39.8092 23.3325 39.8968C23.4634 39.9845 23.6104 40.0455 23.765 40.0764C23.9195 40.1073 24.0786 40.1074 24.2332 40.0767C24.3879 40.0461 24.5349 39.9853 24.666 39.8978L26.706 38.5418L28.746 39.8978C28.8771 39.9853 29.0242 40.0461 29.1788 40.0767C29.3334 40.1073 29.4925 40.1072 29.6471 40.0763C29.8016 40.0455 29.9486 39.9845 30.0795 39.8968C30.2105 39.8091 30.323 39.6965 30.4104 39.5654C30.4979 39.4343 30.5587 39.2873 30.5893 39.1327C30.6199 38.9781 30.6198 38.8189 30.5889 38.6644C30.5581 38.5098 30.4971 38.3629 30.4094 38.2319C30.3217 38.1009 30.2091 37.9885 30.078 37.901L28.878 37.0994L30.078 36.2978C30.2091 36.2104 30.3217 36.0979 30.4094 35.967C30.4971 35.836 30.5581 35.689 30.5889 35.5345C30.6198 35.3799 30.6199 35.2208 30.5893 35.0662C30.5587 34.9116 30.4979 34.7645 30.4104 34.6334C30.323 34.5023 30.2105 34.3897 30.0795 34.302C29.9486 34.2144 29.8016 34.1534 29.6471 34.1225C29.4925 34.0916 29.3334 34.0915 29.1788 34.1222C29.0242 34.1528 28.8771 34.2136 28.746 34.301L26.706 35.657L24.666 34.301C24.4012 34.1244 24.0771 34.0602 23.765 34.1225C23.4528 34.1849 23.1782 34.3686 23.0016 34.6334C22.825 34.8982 22.7608 35.2223 22.8231 35.5345C22.8854 35.8466 23.0692 36.1212 23.334 36.2978L24.534 37.0994L23.334 37.901C23.2029 37.9885 23.0903 38.1009 23.0026 38.2319C22.9149 38.3628 22.8539 38.5098 22.823 38.6644C22.7922 38.8189 22.7921 38.9781 22.8227 39.1327C22.8533 39.2873 22.9141 39.4343 23.0016 39.5654ZM36.2244 64.7966C36.4093 65.0554 36.6893 65.2301 37.003 65.2826C37.3166 65.335 37.6382 65.2608 37.8972 65.0762L41.4 62.5742L44.9028 65.0762C45.1619 65.2611 45.4838 65.3356 45.7977 65.2831C46.1117 65.2307 46.3919 65.0557 46.5768 64.7966C46.7617 64.5376 46.8362 64.2156 46.7837 63.9017C46.7313 63.5878 46.5563 63.3075 46.2972 63.1226L43.4652 61.0994L46.2972 59.0762C46.5563 58.8913 46.7313 58.6111 46.7837 58.2971C46.8362 57.9832 46.7617 57.6613 46.5768 57.4022C46.3919 57.1432 46.1117 56.9682 45.7977 56.9157C45.4838 56.8633 45.1619 56.9377 44.9028 57.1226L41.4 59.6246L37.8972 57.1226C37.6382 56.9377 37.3162 56.8633 37.0023 56.9157C36.6884 56.9682 36.4081 57.1432 36.2232 57.4022C36.0383 57.6613 35.9639 57.9832 36.0163 58.2971C36.0688 58.6111 36.2438 58.8913 36.5028 59.0762L39.3348 61.0994L36.5028 63.1226C36.2439 63.3077 36.0691 63.588 36.0169 63.902C35.9647 64.2159 36.0394 64.5377 36.2244 64.7966ZM60 48.4994C60.5064 48.4946 61.0116 48.551 61.5036 48.6698C61.8996 48.7682 62.2824 48.9158 62.6424 49.1078C62.7816 49.1849 62.9348 49.2336 63.093 49.2509C63.2511 49.2683 63.4112 49.254 63.5638 49.2089C63.7164 49.1638 63.8586 49.0888 63.9819 48.9883C64.1053 48.8878 64.2074 48.7637 64.2824 48.6234C64.3573 48.483 64.4036 48.3291 64.4186 48.1707C64.4335 48.0122 64.4167 47.8524 64.3693 47.7005C64.3219 47.5486 64.2448 47.4076 64.1423 47.2858C64.0399 47.164 63.9143 47.0638 63.7728 46.991C63.2386 46.7047 62.6706 46.4866 62.082 46.3418C61.4007 46.1753 60.7014 46.0939 60 46.0994C59.6818 46.0994 59.3765 46.2258 59.1515 46.4509C58.9264 46.6759 58.8 46.9812 58.8 47.2994C58.8 47.6177 58.9264 47.9229 59.1515 48.1479C59.3765 48.373 59.6818 48.4994 60 48.4994ZM52.4004 52.5494C52.5967 52.5493 52.7899 52.5011 52.9632 52.409C53.4344 52.1541 53.8821 51.8582 54.3012 51.5246C54.6792 51.2282 55.0356 50.9126 55.3908 50.597C55.7112 50.3126 56.0292 50.0282 56.3688 49.757C56.4946 49.6604 56.6 49.5397 56.6789 49.4021C56.7578 49.2644 56.8086 49.1125 56.8284 48.9551C56.8482 48.7977 56.8366 48.6379 56.7942 48.485C56.7519 48.3321 56.6796 48.1891 56.5816 48.0644C56.4837 47.9396 56.3619 47.8354 56.2234 47.758C56.085 47.6806 55.9325 47.6314 55.7749 47.6133C55.6173 47.5951 55.4576 47.6084 55.3052 47.6524C55.1528 47.6964 55.0106 47.7701 54.8868 47.8694C54.5088 48.1658 54.1524 48.4814 53.7972 48.797C53.4768 49.0814 53.1588 49.3658 52.8204 49.637C52.512 49.8834 52.1823 50.1018 51.8352 50.2898C51.5986 50.4156 51.4109 50.6169 51.302 50.8617C51.1932 51.1065 51.1693 51.3807 51.2343 51.6406C51.2993 51.9005 51.4495 52.1312 51.6608 52.2959C51.8721 52.4606 52.1325 52.5499 52.4004 52.5494ZM45.4224 52.4078C45.9552 52.6946 46.5228 52.9118 47.1108 53.057C47.4155 53.1225 47.7337 53.0668 47.9981 52.9019C48.2625 52.7369 48.4523 52.4756 48.5274 52.1731C48.6026 51.8707 48.5571 51.5509 48.4007 51.2814C48.2442 51.0119 47.9891 50.8138 47.6892 50.729C47.2934 50.6305 46.9113 50.4834 46.5516 50.291C46.2053 50.1025 45.8764 49.8837 45.5688 49.637C45.4451 49.5377 45.3029 49.464 45.1504 49.42C44.998 49.376 44.8383 49.3627 44.6807 49.3809C44.5231 49.399 44.3707 49.4482 44.2322 49.5256C44.0937 49.6031 43.972 49.7072 43.874 49.832C43.776 49.9567 43.7038 50.0997 43.6614 50.2526C43.6191 50.4055 43.6074 50.5653 43.6272 50.7227C43.647 50.8801 43.6978 51.032 43.7767 51.1697C43.8556 51.3073 43.961 51.428 44.0868 51.5246C44.5044 51.8582 44.9508 52.1546 45.4224 52.4078ZM38.4 48.4994C38.9059 48.4941 39.4105 48.5514 39.9024 48.6698C40.2983 48.7681 40.6804 48.9152 41.04 49.1078C41.1792 49.1849 41.3324 49.2336 41.4906 49.2509C41.6487 49.2683 41.8088 49.254 41.9614 49.2089C42.114 49.1638 42.2562 49.0888 42.3795 48.9883C42.5029 48.8878 42.605 48.7637 42.68 48.6234C42.7549 48.483 42.8012 48.3291 42.8161 48.1707C42.8311 48.0122 42.8143 47.8524 42.7669 47.7005C42.7195 47.5486 42.6424 47.4076 42.5399 47.2858C42.4375 47.164 42.3119 47.0638 42.1704 46.991C41.6368 46.7044 41.0691 46.4863 40.4808 46.3418C39.7997 46.1766 39.1009 46.0952 38.4 46.0994C38.0818 46.0994 37.7765 46.2258 37.5515 46.4509C37.3264 46.6759 37.2 46.9812 37.2 47.2994C37.2 47.6177 37.3264 47.9229 37.5515 48.1479C37.7765 48.373 38.0818 48.4994 38.4 48.4994ZM31.9644 51.7802C32.232 51.7802 32.4924 51.6902 32.7036 51.5246C33.0816 51.2282 33.438 50.9126 33.7932 50.597C34.1136 50.3126 34.4316 50.0282 34.7712 49.757C34.897 49.6604 35.0024 49.5397 35.0813 49.4021C35.1602 49.2644 35.211 49.1125 35.2308 48.9551C35.2506 48.7977 35.239 48.6379 35.1966 48.485C35.1543 48.3321 35.082 48.1891 34.984 48.0644C34.8861 47.9396 34.7643 47.8354 34.6258 47.758C34.4874 47.6806 34.3349 47.6314 34.1773 47.6133C34.0197 47.5951 33.86 47.6084 33.7076 47.6524C33.5552 47.6964 33.413 47.7701 33.2892 47.8694C32.9112 48.1658 32.5548 48.4814 32.1996 48.797C31.8792 49.0814 31.5612 49.3658 31.2228 49.637C31.0267 49.7913 30.8836 50.0028 30.8133 50.2421C30.743 50.4815 30.7491 50.7369 30.8307 50.9726C30.9122 51.2084 31.0653 51.4129 31.2685 51.5576C31.4717 51.7024 31.7149 51.7802 31.9644 51.7802ZM27.6 50.8994C27.0937 50.9047 26.5887 50.8475 26.0964 50.729C25.7009 50.6307 25.3192 50.4835 24.96 50.291C24.8208 50.2139 24.6677 50.1653 24.5095 50.1479C24.3513 50.1306 24.1912 50.1448 24.0386 50.1899C23.886 50.235 23.7439 50.31 23.6205 50.4105C23.4972 50.5111 23.395 50.6351 23.3201 50.7755C23.2451 50.9159 23.1988 51.0697 23.1839 51.2282C23.169 51.3866 23.1857 51.5464 23.2331 51.6983C23.2805 51.8502 23.3577 51.9912 23.4601 52.113C23.5625 52.2348 23.6881 52.335 23.8296 52.4078C24.3629 52.6943 24.9302 52.9125 25.518 53.057C26.1996 53.2238 26.898 53.3054 27.6 53.2994C27.9183 53.2994 28.2235 53.173 28.4485 52.948C28.6736 52.7229 28.8 52.4177 28.8 52.0994C28.8 51.7812 28.6736 51.4759 28.4485 51.2509C28.2235 51.0258 27.9183 50.8994 27.6 50.8994Z" fill="#294317"/>
</g>
<defs>
<clipPath id="clip0_6229_213">
<rect width="72" height="72" fill="white" transform="translate(0 0.5)"/>
</clipPath>
</defs>
</svg>
