<svg width="72" height="73" viewBox="0 0 72 73" fill="none" xmlns="http://www.w3.org/2000/svg">
<path d="M42.75 70.25C42.5106 70.25 42.2774 70.1737 42.0844 70.032C41.8914 69.8904 41.7486 69.6909 41.6768 69.4625C41.6115 69.3162 41.22 68.9855 40.95 68.8258C37.5975 66.8615 33.8085 58.1765 33.3877 57.1933L29.8305 43.4637C29.7693 43.2273 29.7867 42.9774 29.88 42.7517C29.9734 42.526 30.1376 42.3368 30.348 42.2127C32.5417 40.9235 34.2315 41.0382 35.271 41.3622C36.7267 41.819 37.9238 42.9755 38.7248 44.708L40.5 48.416V27.5C40.5 25.0182 42.5182 23 45 23C47.4818 23 49.5 25.0182 49.5 27.5V39.3552C50.5215 38.7654 51.7337 38.6001 52.8758 38.8951C54.0179 39.1901 54.9985 39.9217 55.6065 40.9325C56.3895 40.2732 57.3997 39.875 58.5 39.875C60.4598 39.875 62.1315 41.135 62.748 42.8855C63.4258 42.4339 64.2133 42.1746 65.0267 42.135C65.8402 42.0955 66.6491 42.2772 67.3675 42.6609C68.0859 43.0445 68.6868 43.6158 69.1064 44.3138C69.5259 45.0119 69.7483 45.8106 69.75 46.625V64.625C69.75 67.7255 67.2278 70.25 64.125 70.25H52.875C52.5766 70.25 52.2905 70.1315 52.0795 69.9205C51.8685 69.7095 51.75 69.4234 51.75 69.125C51.75 68.8266 51.8685 68.5405 52.0795 68.3295C52.2905 68.1185 52.5766 68 52.875 68H64.125C65.9857 68 67.5 66.4857 67.5 64.625V46.625C67.4741 46.0457 67.2257 45.4987 66.8066 45.0979C66.3875 44.6971 65.8299 44.4734 65.25 44.4734C64.6701 44.4734 64.1125 44.6971 63.6934 45.0979C63.2743 45.4987 63.0259 46.0457 63 46.625C63 46.9234 62.8815 47.2095 62.6705 47.4205C62.4595 47.6315 62.1734 47.75 61.875 47.75C61.5766 47.75 61.2905 47.6315 61.0795 47.4205C60.8685 47.2095 60.75 46.9234 60.75 46.625V44.375C60.7241 43.7957 60.4757 43.2487 60.0566 42.8479C59.6375 42.4471 59.0799 42.2234 58.5 42.2234C57.9201 42.2234 57.3625 42.4471 56.9434 42.8479C56.5243 43.2487 56.2759 43.7957 56.25 44.375C56.25 44.6734 56.1315 44.9595 55.9205 45.1705C55.7095 45.3815 55.4234 45.5 55.125 45.5C54.8266 45.5 54.5405 45.3815 54.3295 45.1705C54.1185 44.9595 54 44.6734 54 44.375V43.25C53.9741 42.6707 53.7257 42.1237 53.3066 41.7229C52.8875 41.3221 52.3299 41.0984 51.75 41.0984C51.1701 41.0984 50.6125 41.3221 50.1934 41.7229C49.7743 42.1237 49.5259 42.6707 49.5 43.25C49.5 43.5484 49.3815 43.8345 49.1705 44.0455C48.9595 44.2565 48.6734 44.375 48.375 44.375C48.0766 44.375 47.7905 44.2565 47.5795 44.0455C47.3685 43.8345 47.25 43.5484 47.25 43.25V27.5C47.2241 26.9207 46.9757 26.3737 46.5566 25.9729C46.1375 25.5721 45.5799 25.3484 45 25.3484C44.4201 25.3484 43.8625 25.5721 43.4434 25.9729C43.0243 26.3737 42.7759 26.9207 42.75 27.5V53.375C42.7489 53.6298 42.6615 53.8767 42.5021 54.0754C42.3427 54.2742 42.1207 54.4131 41.8722 54.4694C41.6237 54.5258 41.3635 54.4964 41.1339 54.3859C40.9043 54.2754 40.7189 54.0904 40.608 53.861L36.6885 45.6642C36.315 44.8565 35.6535 43.8372 34.5983 43.5088C33.9097 43.295 33.1178 43.3805 32.2312 43.7698L35.5095 56.471C36.5175 58.7952 39.7822 65.5385 42.0885 66.8885C42.417 67.082 43.5037 67.7862 43.821 68.7897C43.8735 68.9579 43.8858 69.1361 43.8568 69.3099C43.8279 69.4837 43.7585 69.6483 43.6543 69.7903C43.5501 69.9324 43.414 70.048 43.2569 70.1279C43.0998 70.2077 42.9262 70.2495 42.75 70.25ZM43.875 19.625C43.5765 19.625 43.2902 19.5069 43.0785 19.2965L37.4535 13.6715C37.2486 13.4593 37.1352 13.1751 37.1377 12.8802C37.1403 12.5852 37.2586 12.303 37.4672 12.0945C37.6758 11.8859 37.958 11.7676 38.2529 11.765C38.5479 11.7624 38.8321 11.8758 39.0443 12.0807L43.875 16.9093L56.5785 4.20575C56.7907 4.00082 57.0749 3.88743 57.3698 3.88999C57.6648 3.89255 57.947 4.01087 58.1555 4.21945C58.3641 4.42804 58.4824 4.7102 58.485 5.00517C58.4876 5.30014 58.3742 5.58432 58.1693 5.7965L44.6693 19.2965C44.565 19.4008 44.4412 19.4836 44.3049 19.5399C44.1686 19.5963 44.0225 19.6252 43.875 19.625ZM23.625 27.5H5.625C3.76425 27.5 2.25 25.9858 2.25 24.125V6.125C2.25 4.26425 3.76425 2.75 5.625 2.75H23.625C25.4858 2.75 27 4.26425 27 6.125V24.125C27 25.9858 25.4858 27.5 23.625 27.5ZM5.625 5C5.32663 5 5.04048 5.11853 4.8295 5.3295C4.61853 5.54048 4.5 5.82663 4.5 6.125V24.125C4.5 24.4234 4.61853 24.7095 4.8295 24.9205C5.04048 25.1315 5.32663 25.25 5.625 25.25H23.625C23.9234 25.25 24.2095 25.1315 24.4205 24.9205C24.6315 24.7095 24.75 24.4234 24.75 24.125V6.125C24.75 5.82663 24.6315 5.54048 24.4205 5.3295C24.2095 5.11853 23.9234 5 23.625 5H5.625ZM23.625 56.75H5.625C3.76425 56.75 2.25 55.2357 2.25 53.375V35.375C2.25 33.5142 3.76425 32 5.625 32H23.625C25.4858 32 27 33.5142 27 35.375V53.375C27 55.2357 25.4858 56.75 23.625 56.75ZM5.625 34.25C5.32663 34.25 5.04048 34.3685 4.8295 34.5795C4.61853 34.7905 4.5 35.0766 4.5 35.375V53.375C4.5 53.6734 4.61853 53.9595 4.8295 54.1705C5.04048 54.3815 5.32663 54.5 5.625 54.5H23.625C23.9234 54.5 24.2095 54.3815 24.4205 54.1705C24.6315 53.9595 24.75 53.6734 24.75 53.375V35.375C24.75 35.0766 24.6315 34.7905 24.4205 34.5795C24.2095 34.3685 23.9234 34.25 23.625 34.25H5.625Z" fill="#294317"/>
<path d="M37.125 27.5H34.875C33.0142 27.5 31.5 25.9858 31.5 24.125V6.125C31.5 4.26425 33.0142 2.75 34.875 2.75H52.875C53.1734 2.75 53.4595 2.86853 53.6705 3.0795C53.8815 3.29048 54 3.57663 54 3.875C54 4.17337 53.8815 4.45952 53.6705 4.6705C53.4595 4.88147 53.1734 5 52.875 5H34.875C34.5766 5 34.2905 5.11853 34.0795 5.3295C33.8685 5.54048 33.75 5.82663 33.75 6.125V24.125C33.75 24.4234 33.8685 24.7095 34.0795 24.9205C34.2905 25.1315 34.5766 25.25 34.875 25.25H37.125C37.4234 25.25 37.7095 25.3685 37.9205 25.5795C38.1315 25.7905 38.25 26.0766 38.25 26.375C38.25 26.6734 38.1315 26.9595 37.9205 27.1705C37.7095 27.3815 37.4234 27.5 37.125 27.5ZM52.875 27.5H48.375C48.0766 27.5 47.7905 27.3815 47.5795 27.1705C47.3685 26.9595 47.25 26.6734 47.25 26.375C47.25 26.0766 47.3685 25.7905 47.5795 25.5795C47.7905 25.3685 48.0766 25.25 48.375 25.25H52.875C53.1734 25.25 53.4595 25.1315 53.6705 24.9205C53.8815 24.7095 54 24.4234 54 24.125V12.875C54 12.5766 54.1185 12.2905 54.3295 12.0795C54.5405 11.8685 54.8266 11.75 55.125 11.75C55.4234 11.75 55.7095 11.8685 55.9205 12.0795C56.1315 12.2905 56.25 12.5766 56.25 12.875V24.125C56.25 25.9858 54.7358 27.5 52.875 27.5Z" fill="#294317"/>
</svg>
