<svg width="42" height="42" viewBox="0 0 42 42" fill="none" xmlns="http://www.w3.org/2000/svg">
<path d="M2.9986 26.9867V20.9998H1.71289V27.1466C1.7129 27.2516 1.73864 27.3551 1.78786 27.4479L6.85575 37.0029V40.7533H8.14146V36.843C8.14145 36.7379 8.11571 36.6345 8.06649 36.5417L2.9986 26.9867Z" fill="#5E9A36"/>
<path d="M12.6069 27.1396L10.3849 25.1398C9.91323 24.7151 9.32639 24.4395 8.69833 24.3478C8.07028 24.2561 7.42914 24.3524 6.85575 24.6246V18.8431C6.85575 18.2539 6.73867 17.6706 6.5113 17.127C6.28394 16.5834 5.95082 16.0904 5.5313 15.6767C5.11178 15.263 4.61424 14.9368 4.06756 14.717C3.52088 14.4972 2.93598 14.3882 2.34683 14.3964C2.17788 14.3987 2.01665 14.4675 1.89801 14.5878C1.77938 14.7081 1.71287 14.8703 1.71289 15.0392V19.7138H2.99861V15.7361C3.72172 15.874 4.37411 16.2597 4.84347 16.8268C5.31282 17.3939 5.56976 18.107 5.57003 18.8431V25.9109C5.5693 26.0368 5.60564 26.1601 5.6745 26.2655L5.67482 26.2661L5.6753 26.2667L5.67578 26.2675L5.67619 26.268L5.67683 26.269L5.67707 26.2694L5.67803 26.2708L8.24946 30.1279C8.29589 30.199 8.35596 30.2603 8.42619 30.3081C8.49643 30.3559 8.57544 30.3893 8.65867 30.4063C8.74189 30.4234 8.82767 30.4238 8.91105 30.4075C8.99443 30.3913 9.07376 30.3586 9.14445 30.3115C9.21514 30.2644 9.27578 30.2037 9.32288 30.133C9.36997 30.0623 9.40259 29.9829 9.41884 29.8995C9.43508 29.8162 9.43464 29.7304 9.41754 29.6472C9.40043 29.5639 9.367 29.4849 9.31918 29.4147L7.04828 26.0082C7.40553 25.7295 7.84955 25.5854 8.30241 25.6014C8.75527 25.6173 9.18805 25.7922 9.52481 26.0954L11.7468 28.0953C12.4138 28.6983 12.9317 29.4479 13.2599 30.285C13.5881 31.1221 13.7176 32.0239 13.6383 32.9196L13.287 36.7846C13.2852 36.8039 13.2843 36.8233 13.2843 36.8428V40.7531H14.57V36.8719L14.9188 33.036C15.0158 31.9413 14.8574 30.8391 14.4563 29.816C14.0551 28.7928 13.4221 27.8767 12.6069 27.1397V27.1396ZM39.6504 14.3964C39.0612 14.3882 38.4763 14.4972 37.9297 14.717C37.383 14.9368 36.8854 15.263 36.4659 15.6767C36.0464 16.0904 35.7133 16.5834 35.4859 17.127C35.2585 17.6706 35.1415 18.2539 35.1415 18.8431V24.6246C34.5681 24.3525 33.9269 24.2562 33.2989 24.3479C32.6709 24.4396 32.084 24.7151 31.6123 25.1398L29.3903 27.1396C28.5751 27.8766 27.9421 28.7927 27.5409 29.8159C27.1398 30.839 26.9815 31.9413 27.0784 33.0359L27.4272 36.8718V40.753H28.7129V36.8427C28.7129 36.8233 28.712 36.8038 28.7102 36.7844L28.3589 32.9195C28.2796 32.0239 28.4091 31.122 28.7373 30.2849C29.0655 29.4478 29.5834 28.6982 30.2504 28.0952L32.4724 26.0953C32.8092 25.7921 33.242 25.6172 33.6948 25.6013C34.1477 25.5853 34.5917 25.7294 34.949 26.0081L32.678 29.4146C32.6302 29.4849 32.5968 29.5639 32.5797 29.6471C32.5626 29.7303 32.5621 29.8161 32.5784 29.8995C32.5946 29.9829 32.6272 30.0622 32.6743 30.1329C32.7214 30.2036 32.7821 30.2643 32.8528 30.3114C32.9235 30.3585 33.0028 30.3912 33.0862 30.4075C33.1695 30.4237 33.2553 30.4233 33.3385 30.4063C33.4218 30.3892 33.5008 30.3558 33.571 30.308C33.6413 30.2602 33.7013 30.199 33.7477 30.1278L36.3192 26.2707L36.3201 26.2693L36.3204 26.2689L36.321 26.2679L36.3214 26.2674L36.3219 26.2666L36.3224 26.2659L36.3228 26.2653C36.3916 26.16 36.4279 26.0367 36.4272 25.9109V18.8431C36.4275 18.107 36.6844 17.394 37.1538 16.8268C37.6231 16.2597 38.2755 15.874 38.9986 15.7361V26.9864L33.9307 36.5415C33.8815 36.6343 33.8558 36.7377 33.8558 36.8428V40.7531H35.1415V37.0026L40.2093 27.4475C40.2586 27.3547 40.2843 27.2513 40.2843 27.1462V15.0392C40.2843 14.8702 40.2178 14.7081 40.0992 14.5878C39.9805 14.4675 39.8193 14.3987 39.6504 14.3964ZM32.0358 16.5314L30.775 16.2792C30.3692 18.2987 29.5468 20.2115 28.3601 21.8952C27.1735 23.579 25.6488 24.9968 23.8834 26.0581L20.9986 27.7891L18.1136 26.0582C16.3482 24.9968 14.8236 23.579 13.637 21.8952C12.4504 20.2115 11.628 18.2987 11.2222 16.2792L9.60316 8.18357L20.9986 3.05557L32.3941 8.18357L31.0133 15.0877L32.2741 15.3399L33.7553 7.93341C33.7838 7.79072 33.7631 7.64257 33.6965 7.51319C33.6299 7.3838 33.5214 7.28084 33.3887 7.22113L21.2624 1.7644C21.1795 1.72707 21.0896 1.70776 20.9986 1.70776C20.9077 1.70776 20.8177 1.72707 20.7348 1.7644L8.6085 7.22121C8.4758 7.28092 8.36728 7.38388 8.30069 7.51327C8.2341 7.64265 8.21338 7.7908 8.24191 7.93349L9.96139 16.5314C10.4025 18.7265 11.2964 20.8055 12.5862 22.6357C13.876 24.4659 15.5332 26.007 17.4521 27.1606L20.6679 29.09C20.7678 29.15 20.8821 29.1816 20.9986 29.1816C21.1151 29.1816 21.2294 29.15 21.3294 29.09L24.545 27.1606C26.4639 26.007 28.1212 24.4659 29.411 22.6357C30.7008 20.8055 31.5947 18.7265 32.0358 16.5314Z" fill="#5E9A36"/>
<path d="M24.5911 7.49266L25.1187 6.32017L21.2616 4.58446C21.1786 4.54713 21.0887 4.52783 20.9978 4.52783C20.9068 4.52783 20.8169 4.54713 20.734 4.58446L16.8768 6.32017L17.4044 7.49258L20.9978 5.87572L24.5911 7.49266ZM20.9978 24.7907L19.4358 23.8535C18.957 23.566 18.4985 23.246 18.0635 22.8957L17.2569 23.8969C17.7379 24.2843 18.2449 24.6382 18.7744 24.956L20.667 26.0916C20.7669 26.1515 20.8813 26.1832 20.9978 26.1832C21.1143 26.1832 21.2286 26.1515 21.3285 26.0916L23.2213 24.956C23.7507 24.6381 24.2577 24.2842 24.7386 23.8969L23.932 22.8957C23.497 23.246 23.0385 23.566 22.5597 23.8535L20.9978 24.7907ZM28.2482 15.059L29.8207 12.6963C29.8424 12.6637 29.861 12.6292 29.8764 12.5933C29.9617 12.3817 29.9977 12.1536 29.9817 11.9261C29.9657 11.6986 29.8981 11.4777 29.784 11.2802C29.67 11.0827 29.5125 10.9137 29.3235 10.7861C29.1345 10.6585 28.9189 10.5756 28.6931 10.5437C28.647 10.5381 28.6004 10.5376 28.5542 10.5422L26.2323 10.7698C25.8338 10.7349 25.4341 10.8231 25.0873 11.0226L23.4643 11.9608L17.9229 10.7294C17.8381 10.7105 17.7503 10.7091 17.6649 10.7251C17.5795 10.7411 17.4983 10.7743 17.4261 10.8226L15.5598 12.071C15.4694 12.1315 15.3958 12.214 15.3459 12.3107C15.296 12.4074 15.2715 12.5152 15.2747 12.624C15.2779 12.7328 15.3086 12.839 15.364 12.9327C15.4194 13.0263 15.4977 13.1044 15.5915 13.1595L19.2244 15.2952L16.9917 17.0814L14.7331 16.4859C14.5915 16.4486 14.4414 16.4607 14.3076 16.5202L13.0219 17.093C12.9275 17.1351 12.8446 17.1993 12.7803 17.2802C12.7159 17.3611 12.6721 17.4564 12.6524 17.5578C12.6327 17.6593 12.6378 17.7641 12.6672 17.8632C12.6966 17.9623 12.7495 18.0528 12.8213 18.1271L16.0356 21.4515C16.1344 21.5536 16.2642 21.6202 16.4048 21.6407C16.5454 21.6612 16.6888 21.6346 16.8127 21.565L28.028 15.2633C28.1165 15.2135 28.192 15.1435 28.2482 15.0589V15.059ZM16.6152 20.2012L14.3841 17.8937L14.6241 17.7868L16.9767 18.4072C17.0738 18.4328 17.1755 18.4354 17.2737 18.4146C17.3719 18.3938 17.4639 18.3503 17.5423 18.2875L20.7565 15.7161C20.8379 15.651 20.9022 15.5671 20.9439 15.4716C20.9857 15.3762 21.0036 15.272 20.9961 15.1681C20.9886 15.0642 20.956 14.9636 20.9011 14.8751C20.8461 14.7866 20.7705 14.7128 20.6807 14.66L17.126 12.5703L17.9124 12.0442L23.4297 13.2703C23.5869 13.3052 23.7515 13.2799 23.8909 13.1993L25.7303 12.136C25.8594 12.0631 26.0088 12.0344 26.1557 12.0542C26.2018 12.0597 26.2484 12.0602 26.2946 12.0557L28.5787 11.8317C28.6174 11.8528 28.6493 11.8845 28.6706 11.9231C28.6947 11.9626 28.7061 12.0087 28.7031 12.0549L27.2635 14.2181L16.6152 20.2012Z" fill="#5E9A36"/>
</svg>
