<svg width="42" height="42" viewBox="0 0 42 42" fill="none" xmlns="http://www.w3.org/2000/svg">
<path d="M37.0706 41.25H4.92773C3.73473 41.2485 2.59103 40.7739 1.74744 39.9303C0.903863 39.0867 0.429265 37.943 0.427734 36.75C0.427734 36.5795 0.495464 36.416 0.616023 36.2955C0.736582 36.1749 0.900095 36.1072 1.07059 36.1072H40.9277C41.0982 36.1072 41.2617 36.1749 41.3823 36.2955C41.5029 36.416 41.5706 36.5795 41.5706 36.75C41.5691 37.943 41.0945 39.0867 40.2509 39.9303C39.4073 40.7739 38.2636 41.2485 37.0706 41.25ZM1.77773 37.3929C1.92683 38.1185 2.32156 38.7704 2.89538 39.2389C3.4692 39.7073 4.187 39.9635 4.92773 39.9643H37.0706C37.8113 39.9635 38.5291 39.7073 39.1029 39.2389C39.6768 38.7704 40.0715 38.1185 40.2206 37.3929H1.77773Z" fill="#5E9A36"/>
<path d="M26.142 37.3929H2.99916C2.89936 37.3929 2.80093 37.3696 2.71167 37.325C2.6224 37.2804 2.54476 37.2156 2.48488 37.1357L0.556306 34.5643C0.484674 34.4688 0.441054 34.3552 0.430332 34.2363C0.419611 34.1174 0.442212 33.9979 0.495603 33.8911C0.548994 33.7843 0.631066 33.6945 0.732622 33.6317C0.834178 33.569 0.951206 33.5357 1.07059 33.5357H27.4277C27.5376 33.5351 27.6458 33.5627 27.742 33.6158C27.8381 33.6689 27.9191 33.7457 27.9771 33.839C28.0352 33.9323 28.0683 34.0389 28.0734 34.1487C28.0785 34.2584 28.0554 34.3677 28.0063 34.4659L26.7206 37.0374C26.667 37.1447 26.5843 37.2349 26.4821 37.2977C26.3798 37.3606 26.262 37.3935 26.142 37.3929ZM3.32059 36.1071H25.7447L26.3876 34.8214H2.35631L3.32059 36.1071ZM34.4992 37.3929V36.1071C35.0107 36.1071 35.5012 35.904 35.8629 35.5423C36.2245 35.1806 36.4277 34.6901 36.4277 34.1786V15.5357H22.2849V23.25H20.9992V14.8929C20.9992 14.7224 21.0669 14.5588 21.1875 14.4383C21.308 14.3177 21.4715 14.25 21.642 14.25H37.0706C37.2411 14.25 37.4046 14.3177 37.5252 14.4383C37.6457 14.5588 37.7134 14.7224 37.7134 14.8929V34.1786C37.7124 35.0307 37.3735 35.8477 36.7709 36.4503C36.1683 37.0529 35.3513 37.3918 34.4992 37.3929Z" fill="#5E9A36"/>
<path d="M38.3557 32.8929H37.07C36.8995 32.8929 36.736 32.8251 36.6155 32.7046C36.4949 32.584 36.4272 32.4205 36.4272 32.25V18.1071C36.4272 17.9366 36.4949 17.7731 36.6155 17.6526C36.736 17.532 36.8995 17.4643 37.07 17.4643H38.3557C39.2079 17.4653 40.0249 17.8043 40.6275 18.4069C41.23 19.0094 41.569 19.8264 41.57 20.6786V29.6786C41.569 30.5307 41.23 31.3477 40.6275 31.9503C40.0249 32.5529 39.2079 32.8918 38.3557 32.8929ZM37.7129 31.6071H38.3557C38.8672 31.6071 39.3578 31.404 39.7195 31.0423C40.0811 30.6806 40.2843 30.1901 40.2843 29.6786V20.6786C40.2843 20.1671 40.0811 19.6765 39.7195 19.3149C39.3578 18.9532 38.8672 18.75 38.3557 18.75H37.7129V31.6071ZM28.07 11.0357H26.7843C26.7762 10.2649 27.0506 9.5178 27.5557 8.9355C27.8866 8.57218 28.07 8.09845 28.07 7.60704C28.07 7.11562 27.8866 6.64189 27.5557 6.27857C27.0506 5.69627 26.7762 4.94917 26.7843 4.17836C26.776 3.40769 27.0504 2.6607 27.5557 2.07879C27.8922 1.71881 28.0765 1.2427 28.07 0.75H29.3557C29.3639 1.52081 29.0894 2.26791 28.5843 2.85021C28.2477 3.20984 28.0634 3.68582 28.07 4.17836C28.0636 4.67105 28.2478 5.14717 28.5843 5.50714C29.0823 6.09349 29.3557 6.83775 29.3557 7.60704C29.3557 8.37633 29.0823 9.12058 28.5843 9.70693C28.2478 10.0669 28.0636 10.543 28.07 11.0357ZM31.9272 11.0357H30.6415C30.6334 10.2649 30.9078 9.5178 31.4129 8.9355C31.7438 8.57218 31.9272 8.09845 31.9272 7.60704C31.9272 7.11562 31.7438 6.64189 31.4129 6.27857C30.9078 5.69627 30.6334 4.94917 30.6415 4.17836C30.6331 3.40769 30.9076 2.6607 31.4129 2.07879C31.7494 1.71881 31.9336 1.2427 31.9272 0.75H33.2129C33.221 1.52081 32.9466 2.26791 32.4415 2.85021C32.1049 3.20984 31.9206 3.68582 31.9272 4.17836C31.9207 4.67105 32.105 5.14717 32.4415 5.50714C32.9395 6.09349 33.2129 6.83775 33.2129 7.60704C33.2129 8.37633 32.9395 9.12058 32.4415 9.70693C32.105 10.0669 31.9207 10.543 31.9272 11.0357ZM20.5679 34.5L19.4557 33.8571C19.6244 33.5638 19.7131 33.2313 19.7129 32.8929C19.7114 31.6999 19.2368 30.5561 18.3932 29.7126C17.5496 28.869 16.4059 28.3944 15.2129 28.3929H7.49861C6.3056 28.3944 5.1619 28.869 4.31832 29.7126C3.47473 30.5561 3.00014 31.6999 2.99861 32.8929C2.99841 33.2313 3.08708 33.5638 3.25575 33.8571L2.14232 34.5C1.86063 34.0112 1.71253 33.457 1.71289 32.8929C1.71459 31.3589 2.3247 29.8883 3.40937 28.8036C4.49403 27.719 5.96466 27.1088 7.49861 27.1071H15.2129C16.7468 27.1088 18.2175 27.719 19.3021 28.8036C20.3868 29.8883 20.9969 31.3589 20.9986 32.8929C20.9989 33.4571 20.8503 34.0115 20.5679 34.5Z" fill="#5E9A36"/>
<path d="M10.0709 32.2498H8.78516C8.78467 31.0105 9.22735 29.8119 10.0333 28.8704C10.8392 27.9289 11.9552 27.3066 13.1797 27.116L13.3906 28.3837L13.2852 27.7498L13.3932 28.3837C13.2575 28.4068 10.0709 28.9976 10.0709 32.2498Z" fill="#5E9A36"/>
<path d="M6.85603 32.2498H5.57031C5.56982 31.0105 6.01251 29.8119 6.81842 28.8704C7.62433 27.9289 8.74033 27.3066 9.96488 27.116L10.1757 28.3837L10.0703 27.7498L10.1783 28.3837C10.0427 28.4068 6.85603 28.9976 6.85603 32.2498ZM13.2846 32.2498H11.9989C12.0216 31.1348 12.3791 30.0523 13.025 29.1431C13.6709 28.2338 14.5753 27.5399 15.6207 27.1513L16.0913 28.3483C15.2867 28.643 14.589 29.1724 14.0886 29.8679C13.5882 30.5635 13.3081 31.3933 13.2846 32.2498Z" fill="#5E9A36"/>
<path d="M26.7851 32.8926H25.4994V30.3212C25.5002 29.2763 25.1374 28.2637 24.4732 27.4571C23.809 26.6505 22.8848 26.1002 21.8592 25.9005C20.8336 25.7009 19.7704 25.8644 18.8522 26.363C17.9339 26.8615 17.2178 27.6641 16.8266 28.633L15.6348 28.1509C16.1378 26.9054 17.0586 25.8738 18.2391 25.2329C19.4196 24.5921 20.7863 24.3819 22.1048 24.6386C23.4233 24.8952 24.6114 25.6026 25.4654 26.6394C26.3193 27.6763 26.7859 28.9779 26.7851 30.3212V32.8926Z" fill="#5E9A36"/>
<path d="M19.0713 26.4643H20.357V27.75H19.0713V26.4643ZM21.6427 26.4643H22.9284V27.75H21.6427V26.4643ZM2.46498 31.321C1.11506 29.3978 0.402738 27.0993 0.428404 24.7498C0.428404 21.7958 3.7494 19.3928 7.83219 19.3928H9.7794C13.839 19.3928 17.1427 21.7958 17.1427 24.7498C17.1424 24.9155 17.1334 25.0812 17.1157 25.246L15.8377 25.1143C15.8502 24.9942 15.8567 24.8736 15.857 24.753C15.857 22.5049 13.1306 20.6785 9.7794 20.6785H7.83219C4.45912 20.6785 1.71412 22.5049 1.71412 24.7498C1.6843 26.846 2.32188 28.8974 3.53469 30.6075L2.46498 31.321Z" fill="#5E9A36"/>
<path d="M8.14146 20.0958C8.12401 19.9001 8.08255 19.7073 8.01803 19.5217C8.01422 19.5107 8.01079 19.4995 8.00775 19.4883C7.9469 19.2696 7.81414 19.0779 7.63089 18.944C7.44765 18.8101 7.22462 18.7418 6.99782 18.7503H6.21289V17.4646H6.99782C7.49403 17.458 7.97914 17.6115 8.3812 17.9024C8.78326 18.1933 9.08085 18.606 9.22982 19.0794C9.23753 19.1006 9.24461 19.1225 9.25039 19.1437C9.34081 19.4136 9.40012 19.6929 9.42718 19.9762L8.14146 20.0958Z" fill="#5E9A36"/>
<path d="M9.42829 20.6785H8.78544C8.61494 20.6785 8.45143 20.6108 8.33087 20.4902C8.21031 20.3697 8.14258 20.2061 8.14258 20.0356V18.7499C8.14258 18.7094 8.14645 18.6689 8.15415 18.6291C8.51865 16.7211 10.4851 15.5356 13.2854 15.5356H13.3889C13.853 15.5356 14.3159 15.581 14.7711 15.6713C15.4511 15.7982 16.1182 15.9869 16.7639 16.2351C16.9091 16.3005 17.0249 16.4174 17.0887 16.5632C17.1526 16.7091 17.1601 16.8734 17.1098 17.0245C17.0596 17.1743 15.8176 20.6785 9.42829 20.6785ZM9.42829 19.3928C13.3369 19.3928 14.953 17.9939 15.5624 17.1794C15.2181 17.0839 14.8703 17.0013 14.5197 16.9319C14.1473 16.8583 13.7686 16.8213 13.3889 16.8214H13.2854C11.1724 16.8214 9.70215 17.5838 9.42829 18.8142V19.3928Z" fill="#5E9A36"/>
<path d="M9.24021 20.4901L8.33121 19.5811C8.47007 19.4423 11.7879 16.1785 16.5 16.1785V17.4642C12.3144 17.4642 9.27043 20.4599 9.24021 20.4901ZM33.8571 16.8213H35.1429V18.107H33.8571V16.8213ZM33.8571 19.3928H35.1429V20.6785H33.8571V19.3928ZM14.5714 28.3928H8.14286C7.97236 28.3928 7.80885 28.325 7.68829 28.2045C7.56773 28.0839 7.5 27.9204 7.5 27.7499C7.50102 26.8977 7.84 26.0808 8.44257 25.4782C9.04514 24.8756 9.86212 24.5366 10.7143 24.5356H12C12.8522 24.5366 13.6691 24.8756 14.2717 25.4782C14.8743 26.0808 15.2133 26.8977 15.2143 27.7499C15.2143 27.9204 15.1466 28.0839 15.026 28.2045C14.9054 28.325 14.7419 28.3928 14.5714 28.3928ZM8.89564 27.107H13.8186C13.6852 26.7313 13.4388 26.406 13.1132 26.1758C12.7876 25.9456 12.3987 25.8218 12 25.8213H10.7143C10.3155 25.8218 9.9267 25.9456 9.60111 26.1758C9.27551 26.406 9.02909 26.7313 8.89564 27.107Z" fill="#5E9A36"/>
</svg>
