<svg width="42" height="42" viewBox="0 0 42 42" fill="none" xmlns="http://www.w3.org/2000/svg">
<g clip-path="url(#clip0_6554_5978)">
<path d="M40.2206 22.1413V11.9424C40.2206 7.10755 36.2872 3.17407 31.4523 3.17407C27.4137 3.17407 24.0048 5.91875 22.9912 9.64057C21.4947 9.41927 19.9398 9.44908 18.458 9.73138C18.3809 9.74605 18.3075 9.77576 18.2419 9.81882C18.1763 9.86187 18.1199 9.91742 18.0757 9.98229C18.0316 10.0472 18.0007 10.1201 17.9848 10.1969C17.9689 10.2737 17.9682 10.3529 17.9829 10.43C18.0432 10.7561 18.3653 10.9678 18.6815 10.9051C20.0126 10.6516 21.4101 10.6216 22.7564 10.8139C22.7081 11.1882 22.6839 11.5651 22.684 11.9425V15.6829C22.6263 15.6805 19.4802 15.6785 19.4802 15.6785C17.5222 15.6785 15.8849 17.0765 15.5131 18.9266C15.2211 18.8014 14.9222 18.6927 14.618 18.6011V17.7701C15.2078 17.1092 15.6393 16.3226 15.8795 15.47C16.4646 15.1747 17.0571 14.5284 17.4079 13.7836C17.8999 12.7703 17.7385 11.7438 16.7309 11.2611C16.521 11.1623 16.3084 11.1062 16.0995 11.0925V8.56178C16.0995 6.3305 14.2842 4.51523 12.053 4.51523H9.02309C6.79181 4.51523 4.97654 6.3305 4.97654 8.56178V11.0925C4.76753 11.1061 4.55499 11.1622 4.3451 11.2611C3.33734 11.7442 3.17614 12.77 3.66809 13.7836C4.01877 14.5283 4.61116 15.1745 5.19648 15.4699C5.43671 16.3226 5.86818 17.1093 6.45809 17.7701V18.6012C2.89023 19.6728 0.423828 22.9685 0.423828 26.7222C0.423828 27.1964 0.809703 27.5823 1.28397 27.5823H8.31996C9.12385 29.7958 10.4895 31.7535 12.2949 33.2787C11.3964 34.6341 10.8809 36.2517 10.8809 37.9638C10.8809 38.4381 11.2668 38.8239 11.7411 38.8239H30.2494C30.7237 38.8239 31.1096 38.438 31.1096 37.9637C31.1096 34.2104 28.643 30.9144 25.0751 29.8428V28.9332C25.4377 28.5273 25.7415 28.0726 25.9776 27.5822H32.3934C31.936 28.7149 31.3127 29.7697 30.534 30.7269C30.4628 30.8145 30.4179 30.9205 30.4045 31.0326C30.391 31.1447 30.4096 31.2583 30.458 31.3603C30.5065 31.4622 30.5828 31.5484 30.6782 31.6087C30.7736 31.6691 30.8842 31.7012 30.9971 31.7013C31.0859 31.7015 31.1737 31.6818 31.2539 31.6436C31.3342 31.6055 31.4049 31.5499 31.4609 31.4809C32.4169 30.3058 33.1589 28.9958 33.6718 27.5823H40.7064C41.1806 27.5823 41.5665 27.1964 41.5665 26.7222C41.5667 25.0548 41.0775 23.4755 40.2206 22.1413ZM23.8789 11.9424C23.8789 7.7664 27.2763 4.3689 31.4524 4.3689C35.6285 4.3689 39.0259 7.76632 39.0259 11.9424V20.6722C38.0666 19.7282 36.8778 19.0062 35.5323 18.6018V17.4633C36.4876 16.3911 37.015 15.0048 37.0139 13.5687V10.7317C37.0139 9.38954 35.9219 8.29756 34.5797 8.29756H28.2965C26.9543 8.29756 25.8623 9.38954 25.8623 10.7317V13.5687C25.8612 15.0197 26.3995 16.4193 27.3726 17.4956V18.6006C27.0682 18.6923 26.7694 18.8011 26.4773 18.9265C26.1967 17.5302 25.1952 16.3919 23.879 15.9173L23.8789 11.9424ZM33.7569 17.4392L32.3102 18.4117C32.0526 18.5858 31.7489 18.6788 31.438 18.6788C31.1272 18.6788 30.8234 18.5858 30.5659 18.4117L29.1191 17.4392C28.484 17.0131 27.9635 16.437 27.6039 15.762C27.2443 15.0869 27.0564 14.3336 27.0571 13.5687V10.7317C27.0571 10.0483 27.6131 9.49231 28.2965 9.49231H34.5797C35.2631 9.49231 35.8191 10.0482 35.8191 10.7317V13.5687C35.8197 14.3336 35.6319 15.0869 35.2722 15.762C34.9125 16.437 34.3921 17.0131 33.7569 17.4392ZM28.5673 18.5079L29.8994 19.4033C30.3667 19.7174 30.9024 19.8745 31.438 19.8745C31.9736 19.8745 32.5093 19.7174 32.9766 19.4033L34.3374 18.4886V19.4297C34.3374 21.0205 33.0432 22.3147 31.4523 22.3147C29.8615 22.3147 28.5672 21.0205 28.5672 19.4297V18.5079H28.5673ZM25.719 25.6007C25.4752 25.684 25.293 25.8847 25.2315 26.138C24.9594 27.2686 24.2723 28.2557 23.3066 28.9035L21.8639 29.8731C21.6074 30.0465 21.3048 30.1391 20.9952 30.1391C20.6856 30.1391 20.3831 30.0465 20.1265 29.8731L18.6839 28.9035C17.7182 28.2555 17.0311 27.2683 16.7589 26.1376C16.6975 25.8845 16.5152 25.6839 16.2716 25.6008C15.9684 25.4971 15.4775 25.038 15.2062 24.4377C14.8779 23.7116 15.4337 23.3232 15.7106 23.5024C15.8939 23.6209 16.1279 23.6269 16.3187 23.5219C16.4125 23.4704 16.4908 23.3946 16.5453 23.3025C16.5998 23.2104 16.6286 23.1053 16.6286 22.9983V21.4932C16.6286 20.7246 17.2539 20.0993 18.0225 20.0993H23.9679C24.7365 20.0993 25.3619 20.7246 25.3619 21.4932V22.9982C25.3618 23.1052 25.3906 23.2103 25.445 23.3025C25.4995 23.3946 25.5778 23.4704 25.6716 23.5219C25.7654 23.5735 25.8714 23.5988 25.9784 23.5954C26.0854 23.5919 26.1895 23.5598 26.2798 23.5023C26.6425 23.3501 27.2122 23.5695 26.7843 24.4376C26.5036 25.0337 26.0222 25.497 25.719 25.6007ZM18.1102 29.9574L19.4601 30.8648C19.9263 31.1782 20.4609 31.3349 20.9953 31.3349C21.5297 31.3349 22.0642 31.1782 22.5305 30.8648L23.8804 29.9575V30.6713C23.8804 32.2622 22.5862 33.5564 20.9953 33.5564C19.4045 33.5564 18.1102 32.2622 18.1102 30.6713V29.9574ZM19.4803 16.8734H22.5101C23.9356 16.8734 25.1201 17.9247 25.3291 19.2926C24.9206 19.0385 24.449 18.9041 23.9679 18.9045H18.0225C17.5414 18.9041 17.0699 19.0385 16.6614 19.2926C16.8704 17.9246 18.0549 16.8734 19.4803 16.8734ZM7.65308 18.7945L9.003 19.7018C9.46931 20.0152 10.0037 20.1719 10.5381 20.1719C11.0725 20.1719 11.6071 20.0152 12.0733 19.7018L13.4233 18.7944V19.5083C13.4233 21.0991 12.129 22.3933 10.5381 22.3933C8.94731 22.3933 7.65308 21.0991 7.65308 19.5083V18.7945ZM9.02325 5.71014H12.0531C13.4786 5.71014 14.663 6.76146 14.872 8.12938C14.4635 7.87528 13.9919 7.74084 13.5108 7.74133H7.56549C7.08441 7.74084 6.61283 7.87528 6.20432 8.12938C6.41333 6.76146 7.59787 5.71014 9.02325 5.71014ZM5.81475 14.4377C5.5114 14.3341 5.0299 13.8706 4.74921 13.2746C4.61357 12.9866 4.56431 12.7417 4.61044 12.585C4.59356 12.4205 4.9767 12.0919 5.25361 12.3393C5.41626 12.4846 5.67067 12.4636 5.86176 12.3588C5.95558 12.3073 6.03383 12.2315 6.08834 12.1394C6.14285 12.0472 6.17161 11.9422 6.17161 11.8351V10.3301C6.17161 9.5615 6.79695 8.93616 7.56557 8.93616H13.5109C14.2795 8.93616 14.9048 9.5615 14.9048 10.3301V11.8351C14.9048 11.9422 14.9336 12.0472 14.9881 12.1394C15.0426 12.2315 15.1209 12.3073 15.2147 12.3588C15.4058 12.4636 15.6719 12.4967 15.8228 12.3393C16.0314 12.1218 16.4132 12.3458 16.466 12.585C16.5012 12.7445 16.4629 12.9866 16.3272 13.2746C16.0465 13.8707 15.565 14.3341 15.2623 14.4376C15.0181 14.5208 14.8359 14.7216 14.7745 14.9749C14.5023 16.1055 13.8153 17.0926 12.8495 17.7405L11.4069 18.7101C11.1504 18.8835 10.8478 18.9761 10.5382 18.9761C10.2286 18.9761 9.92608 18.8835 9.66956 18.7101L8.22699 17.7405C7.26124 17.0925 6.57415 16.1054 6.30187 14.9748C6.24064 14.7217 6.05847 14.521 5.81475 14.4377ZM6.47384 19.8518C6.64902 21.9411 8.40434 23.5882 10.5381 23.5882C12.6719 23.5882 14.4272 21.9413 14.6025 19.8522C14.8867 19.9529 15.1643 20.0713 15.4337 20.2067V22.2558C15.2247 22.2693 15.0121 22.3254 14.8023 22.4243C14.0644 22.7719 13.4991 23.6171 14.1253 24.9469C14.3984 25.5269 14.8184 26.0463 15.2672 26.3876H1.62629C1.76169 23.418 3.69091 20.8334 6.47384 19.8518ZM9.59925 27.5823H16.013C16.249 28.0726 16.5528 28.5274 16.9154 28.9332V29.8432C15.3768 30.3055 14.0432 31.1822 13.0236 32.3313C11.5099 31.0409 10.3398 29.4153 9.59925 27.5823ZM29.9072 37.6291H12.0834C12.2191 34.6605 14.152 32.0718 16.9369 31.0914C17.1479 33.1444 18.8874 34.7512 20.9953 34.7512C23.1031 34.7512 24.8428 33.1443 25.0536 31.0911C27.8398 32.0712 29.7717 34.6578 29.9072 37.6291ZM26.7234 26.3875C27.1721 26.0462 27.5921 25.5267 27.8652 24.9467C28.4915 23.6169 27.9261 22.7717 27.1882 22.4242C26.9782 22.3253 26.7658 22.2693 26.5568 22.2556V20.2064C26.8282 20.0703 27.1079 19.9513 27.3942 19.8502C27.6054 21.903 29.3448 23.5096 31.4525 23.5096C33.5602 23.5096 35.2996 21.903 35.5108 19.8502C38.2949 20.8306 40.2286 23.4209 40.3644 26.3875H26.7234Z" fill="#5E9A36"/>
<path d="M8.4914 12.9779C8.87498 12.9779 9.18593 12.667 9.18593 12.2834C9.18593 11.8998 8.87498 11.5889 8.4914 11.5889C8.10783 11.5889 7.79688 11.8998 7.79688 12.2834C7.79688 12.667 8.10783 12.9779 8.4914 12.9779Z" fill="#5E9A36"/>
<path d="M12.5207 12.9779C12.9043 12.9779 13.2152 12.667 13.2152 12.2834C13.2152 11.8998 12.9043 11.5889 12.5207 11.5889C12.1371 11.5889 11.8262 11.8998 11.8262 12.2834C11.8262 12.667 12.1371 12.9779 12.5207 12.9779Z" fill="#5E9A36"/>
<path d="M8.97754 15.7512C9.35096 16.1235 9.91957 16.337 10.5375 16.337C11.1555 16.337 11.7241 16.1235 12.0976 15.7511C12.2077 15.6388 12.2691 15.4876 12.2684 15.3303C12.2678 15.173 12.2051 15.0223 12.094 14.9109C11.983 14.7996 11.8325 14.7365 11.6752 14.7354C11.5179 14.7343 11.3665 14.7952 11.2539 14.905C11.1442 15.0144 10.8908 15.1421 10.5375 15.1421C10.1843 15.1421 9.93082 15.0144 9.82113 14.905C9.7085 14.7952 9.55711 14.7343 9.39983 14.7354C9.24254 14.7365 9.09204 14.7996 8.98099 14.911C8.86994 15.0224 8.80729 15.1731 8.80665 15.3304C8.806 15.4877 8.86741 15.6389 8.97754 15.7512Z" fill="#5E9A36"/>
<path d="M18.9484 24.14C19.332 24.14 19.643 23.8291 19.643 23.4455C19.643 23.0619 19.332 22.751 18.9484 22.751C18.5649 22.751 18.2539 23.0619 18.2539 23.4455C18.2539 23.8291 18.5649 24.14 18.9484 24.14Z" fill="#5E9A36"/>
<path d="M22.9758 24.14C23.3594 24.14 23.6703 23.8291 23.6703 23.4455C23.6703 23.0619 23.3594 22.751 22.9758 22.751C22.5922 22.751 22.2812 23.0619 22.2812 23.4455C22.2812 23.8291 22.5922 24.14 22.9758 24.14Z" fill="#5E9A36"/>
<path d="M21.7109 26.0682C21.6012 26.1776 21.3477 26.3053 20.9945 26.3053C20.6413 26.3053 20.3878 26.1777 20.2782 26.0682C20.1655 25.9584 20.0141 25.8975 19.8569 25.8986C19.6996 25.8997 19.5491 25.9628 19.438 26.0742C19.327 26.1856 19.2643 26.3363 19.2637 26.4936C19.263 26.6509 19.3244 26.8021 19.4346 26.9144C19.8079 27.2866 20.3766 27.5001 20.9945 27.5001C21.6125 27.5001 22.181 27.2866 22.5544 26.9144C22.61 26.859 22.6541 26.7932 22.6843 26.7208C22.7144 26.6483 22.73 26.5707 22.7301 26.4922C22.7302 26.4137 22.7149 26.336 22.685 26.2635C22.655 26.191 22.6111 26.1251 22.5557 26.0695C22.5004 26.0139 22.4346 25.9698 22.3621 25.9396C22.2897 25.9095 22.212 25.8939 22.1336 25.8938C22.0551 25.8937 21.9774 25.909 21.9049 25.9389C21.8324 25.9689 21.7665 26.0128 21.7109 26.0682Z" fill="#5E9A36"/>
<path d="M29.4055 12.8988C29.789 12.8988 30.1 12.5879 30.1 12.2043C30.1 11.8207 29.789 11.5098 29.4055 11.5098C29.0219 11.5098 28.7109 11.8207 28.7109 12.2043C28.7109 12.5879 29.0219 12.8988 29.4055 12.8988Z" fill="#5E9A36"/>
<path d="M33.4328 12.8988C33.8164 12.8988 34.1273 12.5879 34.1273 12.2043C34.1273 11.8207 33.8164 11.5098 33.4328 11.5098C33.0492 11.5098 32.7383 11.8207 32.7383 12.2043C32.7383 12.5879 33.0492 12.8988 33.4328 12.8988Z" fill="#5E9A36"/>
<path d="M32.168 14.8272C32.0583 14.9365 31.8048 15.0643 31.4516 15.0643C31.0984 15.0643 30.8449 14.9365 30.7352 14.8271C30.6226 14.7173 30.4712 14.6564 30.3139 14.6575C30.1566 14.6586 30.0061 14.7217 29.895 14.8331C29.784 14.9445 29.7214 15.0952 29.7207 15.2525C29.7201 15.4098 29.7815 15.561 29.8916 15.6733C30.265 16.0456 30.8336 16.2591 31.4516 16.2591C32.0696 16.2591 32.6382 16.0456 33.0116 15.6732C33.1211 15.5607 33.1819 15.4097 33.1809 15.2528C33.18 15.0959 33.1173 14.9457 33.0065 14.8346C32.8957 14.7235 32.7457 14.6604 32.5888 14.659C32.4319 14.6577 32.2807 14.718 32.168 14.8272Z" fill="#5E9A36"/>
</g>
<defs>
<clipPath id="clip0_6554_5978">
<rect width="41.1429" height="41.1429" fill="white" transform="translate(0.427734 0.428467)"/>
</clipPath>
</defs>
</svg>
