<svg width="42" height="42" viewBox="0 0 42 42" fill="none" xmlns="http://www.w3.org/2000/svg">
<path d="M36.8781 40.3387H18.3381C17.7507 40.338 17.1877 40.1044 16.7724 39.6891C16.3571 39.2738 16.1235 38.7108 16.1228 38.1234V37.406H10.7549C10.8865 37.7263 10.9371 38.074 10.9025 38.4185C10.8678 38.763 10.7488 39.0936 10.556 39.3812C10.3632 39.6688 10.1026 39.9045 9.7971 40.0675C9.49163 40.2305 9.15072 40.3158 8.80449 40.3158C8.45826 40.3158 8.11735 40.2305 7.81188 40.0675C7.50641 39.9045 7.24578 39.6688 7.053 39.3812C6.86022 39.0936 6.74123 38.763 6.70653 38.4185C6.67184 38.074 6.72251 37.7263 6.85406 37.406H5.32535C4.68449 37.4053 4.07008 37.1504 3.61692 36.6973C3.16377 36.2441 2.90889 35.6297 2.90821 34.9889V10.6117C2.90718 9.96916 3.1611 9.35243 3.61426 8.89686C4.06741 8.4413 4.68279 8.18411 5.32535 8.18172H9.87035L9.84463 5.38144C9.35139 5.38263 8.87787 5.18783 8.52825 4.8399C8.17863 4.49197 7.98154 4.0194 7.98035 3.52615C7.97916 3.0329 8.17395 2.55939 8.52189 2.20977C8.86982 1.86014 9.34239 1.66306 9.83563 1.66187H18.0796C18.5729 1.6651 19.0446 1.86415 19.3911 2.21522C19.7376 2.56629 19.9304 3.04062 19.9272 3.53387C19.924 4.02711 19.7249 4.49887 19.3738 4.84535C19.0228 5.19184 18.5485 5.38468 18.0552 5.38144V8.18172H22.5038C23.1463 8.18411 23.7617 8.4413 24.2149 8.89686C24.668 9.35243 24.9219 9.96916 24.9209 10.6117V19.8303C24.9543 19.82 30.1923 19.8367 30.2373 19.8303C30.6975 19.831 31.1386 20.0141 31.4639 20.3394C31.7893 20.6648 31.9724 21.1059 31.9731 21.566V24.284H36.8793C37.4667 24.2847 38.0297 24.5183 38.445 24.9336C38.8603 25.3489 39.094 25.912 39.0946 26.4993V38.1234C39.094 38.7108 38.8603 39.2738 38.445 39.6891C38.0297 40.1044 37.4654 40.338 36.8781 40.3387ZM34.6383 39.053H36.8781C37.1245 39.0527 37.3607 38.9546 37.535 38.7804C37.7092 38.6061 37.8073 38.3699 37.8076 38.1234V26.5006C37.8076 26.2539 37.7097 26.0173 37.5354 25.8428C37.3612 25.6683 37.1247 25.5701 36.8781 25.5697H34.6396L34.6383 39.053ZM21.8622 39.053H33.3526V25.5697H21.8622V39.053ZM17.4085 36.8274V38.1234C17.4088 38.3699 17.5069 38.6061 17.6811 38.7804C17.8554 38.9546 18.0916 39.0527 18.3381 39.053H20.5765V25.5697H18.6633C18.5185 25.5334 18.3674 25.5297 18.2209 25.5588C18.0744 25.5879 17.9362 25.6491 17.8163 25.738C17.6963 25.8269 17.5975 25.9412 17.5269 26.0729C17.4564 26.2045 17.416 26.3501 17.4085 26.4993V36.6989C17.4126 36.7416 17.4126 36.7847 17.4085 36.8274ZM7.98163 38.2289C7.97784 38.3369 7.9967 38.4446 8.037 38.545C8.07731 38.6454 8.13816 38.7362 8.21566 38.8116C8.29316 38.887 8.38558 38.9454 8.48699 38.983C8.5884 39.0206 8.69655 39.0366 8.80449 39.0299C9.01693 39.0299 9.22067 38.9455 9.37088 38.7953C9.5211 38.645 9.60549 38.4413 9.60549 38.2289C9.60549 38.0164 9.5211 37.8127 9.37088 37.6625C9.22067 37.5123 9.01693 37.4279 8.80449 37.4279C8.6966 37.4214 8.58853 37.4375 8.48721 37.4751C8.38589 37.5128 8.29355 37.5712 8.2161 37.6466C8.13864 37.722 8.07778 37.8127 8.03741 37.913C7.99704 38.0132 7.97804 38.1208 7.98163 38.2289ZM5.32535 9.46872C5.0239 9.47076 4.73555 9.59221 4.52347 9.80645C4.3114 10.0207 4.19289 10.3103 4.19392 10.6117V34.9889C4.19392 35.2889 4.31312 35.5767 4.52531 35.7889C4.73749 36.0011 5.02528 36.1203 5.32535 36.1203H16.1228V26.4993C16.1235 25.9769 16.3084 25.4716 16.6449 25.072C16.9814 24.6725 17.448 24.4044 17.9626 24.3149V14.2554C17.9626 14.0849 18.0304 13.9214 18.1509 13.8009C18.2715 13.6803 18.435 13.6126 18.6055 13.6126C18.776 13.6126 18.9395 13.6803 19.0601 13.8009C19.1806 13.9214 19.2483 14.0849 19.2483 14.2554V24.284H23.2431C23.3202 23.2709 22.9808 21.0993 23.6339 20.4706V10.6117C23.6353 10.31 23.5169 10.0201 23.3048 9.80562C23.0927 9.5911 22.8042 9.46948 22.5025 9.46744H17.5435C14.4938 9.51758 8.34163 9.45072 5.32535 9.46872ZM24.5288 24.284H30.6873V21.566C30.6873 21.5068 30.6757 21.4482 30.653 21.3935C30.6303 21.3388 30.597 21.2892 30.5551 21.2474C30.5132 21.2056 30.4634 21.1724 30.4087 21.1499C30.3539 21.1274 30.2953 21.1158 30.2361 21.116H24.9801C24.8985 21.1163 24.8186 21.1385 24.7486 21.1803C24.6832 21.2215 24.6289 21.2783 24.5908 21.3456C24.5526 21.4129 24.5318 21.4887 24.5301 21.566L24.5288 24.284ZM11.1561 8.18172H16.7682V5.38144H11.1561V8.18172ZM9.84463 2.94887C9.69238 2.9504 9.54697 3.01235 9.4404 3.1211C9.33383 3.22984 9.27481 3.37647 9.27635 3.52872C9.27788 3.68098 9.33984 3.82638 9.44858 3.93296C9.55733 4.03953 9.70395 4.09854 9.85621 4.09701H18.0783C18.1541 4.10054 18.2297 4.08791 18.3001 4.05994C18.3705 4.03198 18.4342 3.98933 18.4869 3.93483C18.5396 3.88033 18.58 3.81524 18.6056 3.74389C18.6311 3.67253 18.6412 3.59655 18.6351 3.52101C18.6407 3.44532 18.6301 3.3693 18.6039 3.29804C18.5778 3.22678 18.5368 3.1619 18.4836 3.10775C18.4305 3.0536 18.3664 3.01142 18.2956 2.98402C18.2248 2.95662 18.149 2.94463 18.0732 2.94887H9.84463ZM13.9126 31.9803C13.7421 31.9803 13.5786 31.9126 13.4581 31.792C13.3375 31.6714 13.2698 31.5079 13.2698 31.3374V14.2593C13.2698 14.0888 13.3375 13.9253 13.4581 13.8047C13.5786 13.6842 13.7421 13.6164 13.9126 13.6164C14.0831 13.6164 14.2466 13.6842 14.3672 13.8047C14.4878 13.9253 14.5555 14.0888 14.5555 14.2593V31.3336C14.5555 31.5041 14.4878 31.6676 14.3672 31.7881C14.2466 31.9087 14.0831 31.9764 13.9126 31.9764V31.9803ZM9.22492 31.9803C9.05442 31.9803 8.89091 31.9126 8.77035 31.792C8.64979 31.6714 8.58206 31.5079 8.58206 31.3374V14.2593C8.58206 14.0888 8.64979 13.9253 8.77035 13.8047C8.89091 13.6842 9.05442 13.6164 9.22492 13.6164C9.39542 13.6164 9.55893 13.6842 9.67949 13.8047C9.80005 13.9253 9.86778 14.0888 9.86778 14.2593V31.3336C9.86778 31.5041 9.80005 31.6676 9.67949 31.7881C9.55893 31.9087 9.39542 31.9764 9.22492 31.9764V31.9803Z" fill="#5E9A36"/>
</svg>
