<svg width="42" height="42" viewBox="0 0 42 42" fill="none" xmlns="http://www.w3.org/2000/svg">
<path d="M36.4244 24.3835V20.646C36.4244 15.2781 35.7237 9.92698 34.3402 4.74169C34.1571 4.05786 33.7535 3.45354 33.192 3.02235C32.6305 2.59117 31.9425 2.35719 31.2346 2.35669H28.5622C28.0925 2.35802 27.6392 2.52984 27.2866 2.84022C26.9341 3.15059 26.7061 3.57842 26.6452 4.04419L26.3187 6.65419C25.6302 6.45536 24.924 6.32423 24.2101 6.26269V5.57098C24.2095 4.71695 23.8701 3.89806 23.2664 3.29398C22.6631 2.69386 21.8468 2.35689 20.9958 2.35669C19.2235 2.35669 17.7815 3.79862 17.7815 5.57098V6.26205C17.0551 6.32569 16.3505 6.45876 15.673 6.65548L15.3451 4.04162C15.2838 3.57654 15.0558 3.1495 14.7035 2.83975C14.3512 2.53001 13.8985 2.3586 13.4294 2.35733H10.757C10.0492 2.35809 9.36143 2.59216 8.80011 3.02332C8.23879 3.45448 7.83527 4.05867 7.65203 4.74233C6.26837 9.93075 5.56752 15.2775 5.56724 20.6473V24.3842C4.97251 24.7978 4.48655 25.3491 4.15076 25.991C3.81497 26.633 3.63928 27.3465 3.63867 28.071V34.4995C3.63867 35.5628 4.50396 36.4281 5.56724 36.4281H7.26053C7.26053 37.2683 7.57167 38.061 8.16053 38.6659C8.45905 38.9759 8.81727 39.2223 9.21358 39.3901C9.60989 39.5579 10.0361 39.6438 10.4665 39.6424H31.5239C32.4007 39.6424 33.221 39.2953 33.8311 38.6659C34.4133 38.0671 34.7366 37.2633 34.7311 36.4281H36.4244C37.4877 36.4281 38.353 35.5628 38.353 34.4995V28.071C38.353 26.5455 37.588 25.1974 36.4244 24.3835ZM33.0982 5.07405C34.4524 10.1541 35.1383 15.3891 35.1387 20.6466V23.7606C34.883 23.6842 34.6209 23.6308 34.3557 23.6012L34.1551 16.8145C34.097 14.6998 33.4261 12.6475 32.224 10.9067L32.9928 4.78026C33.0352 4.87412 33.0712 4.97183 33.0982 5.07405ZM22.2815 18.4281H19.7101C19.001 18.4281 18.4244 19.0048 18.4244 19.7138V20.3567H11.0058C10.7468 20.3579 10.4901 20.3066 10.2515 20.2058C10.0128 20.105 9.79705 19.9569 9.61724 19.7704C9.44009 19.5883 9.30116 19.3726 9.20864 19.136C9.11612 18.8994 9.07188 18.6467 9.07853 18.3928L9.12224 16.8531C9.2791 11.608 13.5155 7.49955 18.7651 7.49955H23.2265C28.4761 7.49955 32.7125 11.608 32.8694 16.8531L32.9131 18.394C32.9195 18.6477 32.875 18.9001 32.7824 19.1364C32.6898 19.3727 32.5508 19.588 32.3737 19.7698C32.1941 19.9563 31.9784 20.1045 31.7399 20.2054C31.5013 20.3063 31.2448 20.3577 30.9858 20.3567H23.5672V19.7138C23.5672 19.0048 22.9906 18.4281 22.2815 18.4281ZM22.2815 19.7138V23.571H19.7101V19.7138H22.2815ZM27.92 4.20748C27.9404 4.05146 28.0168 3.90817 28.1349 3.80423C28.2531 3.70029 28.4049 3.64279 28.5622 3.6424H31.108C31.1996 3.64142 31.2905 3.66016 31.3743 3.69736C31.4581 3.73455 31.5329 3.78933 31.5937 3.85798C31.6545 3.92663 31.6998 4.00754 31.7266 4.09524C31.7534 4.18294 31.761 4.27537 31.7489 4.36626L31.0996 9.54576C30.0946 8.50201 28.8906 7.67028 27.5587 7.09969L27.92 4.20748ZM20.9958 3.6424C21.5069 3.6424 21.9922 3.84426 22.3574 4.20298C22.7232 4.57455 22.9244 5.0599 22.9244 5.57098V6.21383H19.0672V5.57098C19.0672 4.50769 19.9325 3.6424 20.9958 3.6424ZM10.397 3.85969C10.4577 3.7907 10.5325 3.73558 10.6164 3.69808C10.7002 3.66059 10.7912 3.6416 10.883 3.6424H13.4294C13.7534 3.6424 14.0292 3.8854 14.0703 4.20426L14.4329 7.09969C13.101 7.67028 11.897 8.50201 10.892 9.54576L10.2427 4.36562C10.2306 4.27516 10.2382 4.18315 10.2648 4.09585C10.2914 4.00855 10.3365 3.928 10.397 3.85969ZM6.85296 20.6466C6.85335 15.3891 7.53928 10.1542 8.89339 5.07405C8.92039 4.97183 8.95639 4.87476 8.99882 4.78026L9.76703 10.9067C8.5651 12.6475 7.89446 14.6999 7.83653 16.8145L7.63596 23.6012C7.3666 23.6308 7.1056 23.6848 6.85296 23.7606V20.6466ZM4.92439 34.4995V28.071C4.92439 26.4844 6.08281 25.1717 7.59674 24.9113L7.28946 35.1424H5.56724C5.39675 35.1424 5.23323 35.0747 5.11267 34.9541C4.99212 34.8336 4.92439 34.67 4.92439 34.4995ZM11.1948 38.3567L11.362 31.2705C11.3648 31.1022 11.434 30.9419 11.5543 30.8243C11.6747 30.7067 11.8366 30.6414 12.0048 30.6424H29.9868C30.3391 30.6424 30.622 30.9188 30.6297 31.2698L30.7975 38.3567H11.1948ZM32.9086 37.771C32.6772 38.0102 32.3911 38.1728 32.0812 38.266L31.9154 31.2396C31.9063 30.7352 31.6987 30.2546 31.3377 29.9022C30.9767 29.5497 30.4913 29.3537 29.9868 29.3567H12.0048C11.5002 29.3539 11.0149 29.55 10.6539 29.9026C10.2929 30.2552 10.0854 30.7358 10.0762 31.2403L9.91103 38.266C9.59715 38.1748 9.31202 38.0043 9.08303 37.771C8.90235 37.5864 8.76104 37.3669 8.66767 37.1261C8.57429 36.8852 8.5308 36.6278 8.53981 36.3696L9.00267 20.9256C9.56819 21.3876 10.2756 21.6407 11.0058 21.6424H18.4244V23.571C18.4244 24.28 19.001 24.8567 19.7101 24.8567H22.2815C22.99 24.8567 23.5672 24.28 23.5672 23.571V21.6424H30.9858C31.716 21.6407 32.4234 21.3876 32.989 20.9256L33.4518 36.3703C33.4608 36.6284 33.4173 36.8856 33.3239 37.1264C33.2305 37.3672 33.0892 37.5865 32.9086 37.771ZM37.0672 34.4995C37.0672 34.67 36.9995 34.8336 36.879 34.9541C36.7584 35.0747 36.5949 35.1424 36.4244 35.1424H34.7015L34.3949 24.9113C35.9088 25.1717 37.0672 26.4844 37.0672 28.071V34.4995Z" fill="#5E9A36"/>
<path d="M28.0787 11.7667C28.2119 11.767 28.342 11.7259 28.4508 11.6491C28.5597 11.5722 28.642 11.4634 28.6863 11.3378C28.7307 11.2121 28.7348 11.0758 28.6983 10.9476C28.6618 10.8195 28.5863 10.7058 28.4824 10.6224C26.9864 9.42094 25.1691 8.78516 23.2277 8.78516H18.7662C16.8248 8.78516 15.0081 9.42094 13.5115 10.6231C13.3786 10.73 13.2936 10.8853 13.2752 11.0549C13.2568 11.2244 13.3066 11.3944 13.4135 11.5273C13.5204 11.6602 13.6757 11.7452 13.8453 11.7635C14.0148 11.7819 14.1848 11.7322 14.3177 11.6253C15.5822 10.6077 17.1205 10.0709 18.7662 10.0709H23.2277C24.8734 10.0709 26.4117 10.6083 27.6762 11.6247C27.7952 11.7204 27.9372 11.7667 28.0787 11.7667ZM27.4255 31.928H14.5684C14.3979 31.928 14.2344 31.9957 14.1138 32.1163C13.9932 32.2369 13.9255 32.4004 13.9255 32.5709C13.9255 32.7414 13.9932 32.9049 14.1138 33.0254C14.2344 33.146 14.3979 33.2137 14.5684 33.2137H15.8541V33.8566C15.8541 34.0271 15.9218 34.1906 16.0424 34.3112C16.1629 34.4317 16.3264 34.4994 16.4969 34.4994C16.6674 34.4994 16.831 34.4317 16.9515 34.3112C17.0721 34.1906 17.1398 34.0271 17.1398 33.8566V33.2137H27.4255C27.596 33.2137 27.7595 33.146 27.8801 33.0254C28.0006 32.9049 28.0684 32.7414 28.0684 32.5709C28.0684 32.4004 28.0006 32.2369 27.8801 32.1163C27.7595 31.9957 27.596 31.928 27.4255 31.928Z" fill="#5E9A36"/>
</svg>
