<svg width="17" height="16" viewBox="0 0 17 16" fill="none" xmlns="http://www.w3.org/2000/svg">
<path d="M3.15755 11.4871L3.84986 11.7756L3.15755 11.4871ZM2.602 12.8204L3.2943 13.1089L2.602 12.8204ZM14.3969 12.8204L13.7046 13.1089H13.7046L14.3969 12.8204ZM13.8413 11.4871L14.5336 11.1986L13.8413 11.4871ZM11.1661 9.91659C10.7519 9.91659 10.4161 10.2524 10.4161 10.6666C10.4161 11.0808 10.7519 11.4166 11.1661 11.4166V9.91659ZM5.83277 11.4166C6.24698 11.4166 6.58277 11.0808 6.58277 10.6666C6.58277 10.2524 6.24698 9.91659 5.83277 9.91659V11.4166ZM13.1661 6.07399H12.4161C12.4161 7.13943 11.8018 8.45619 10.9094 9.54279C10.4724 10.0749 9.99583 10.5175 9.54701 10.8207C9.08209 11.1348 8.72111 11.2499 8.49943 11.2499V11.9999V12.7499C9.15275 12.7499 9.81261 12.4515 10.3867 12.0636C10.977 11.6649 11.5577 11.1169 12.0686 10.4948C13.072 9.273 13.9161 7.62679 13.9161 6.07399H13.1661ZM8.49943 11.9999V11.2499C8.27775 11.2499 7.91678 11.1348 7.45185 10.8207C7.00303 10.5175 6.52647 10.0749 6.08944 9.54279C5.19704 8.45619 4.58277 7.13943 4.58277 6.07399H3.83277H3.08277C3.08277 7.62679 3.92683 9.273 4.93026 10.4948C5.44115 11.1169 6.02188 11.6649 6.61212 12.0636C7.18625 12.4515 7.84611 12.7499 8.49943 12.7499V11.9999ZM3.83277 6.07399H4.58277C4.58277 3.85879 6.34741 2.08325 8.49943 2.08325V1.33325V0.583252C5.4968 0.583252 3.08277 3.05272 3.08277 6.07399H3.83277ZM8.49943 1.33325V2.08325C10.6515 2.08325 12.4161 3.85879 12.4161 6.07399H13.1661H13.9161C13.9161 3.05272 11.5021 0.583252 8.49943 0.583252V1.33325ZM10.1661 5.99992H9.4161C9.4161 6.50618 9.00569 6.91659 8.49943 6.91659V7.66659V8.41659C9.83412 8.41659 10.9161 7.33461 10.9161 5.99992H10.1661ZM8.49943 7.66659V6.91659C7.99317 6.91659 7.58277 6.50618 7.58277 5.99992H6.83277H6.08277C6.08277 7.33461 7.16474 8.41659 8.49943 8.41659V7.66659ZM6.83277 5.99992H7.58277C7.58277 5.49366 7.99317 5.08325 8.49943 5.08325V4.33325V3.58325C7.16474 3.58325 6.08277 4.66523 6.08277 5.99992H6.83277ZM8.49943 4.33325V5.08325C9.00569 5.08325 9.4161 5.49366 9.4161 5.99992H10.1661H10.9161C10.9161 4.66523 9.83412 3.58325 8.49943 3.58325V4.33325ZM3.15755 11.4871L2.46524 11.1986L1.90969 12.532L2.602 12.8204L3.2943 13.1089L3.84986 11.7756L3.15755 11.4871ZM3.83277 14.6666V15.4166H13.1661V14.6666V13.9166H3.83277V14.6666ZM14.3969 12.8204L15.0892 12.532L14.5336 11.1986L13.8413 11.4871L13.149 11.7756L13.7046 13.1089L14.3969 12.8204ZM12.6105 10.6666V9.91659H11.1661V10.6666V11.4166H12.6105V10.6666ZM4.38832 10.6666V11.4166H5.83277V10.6666V9.91659H4.38832V10.6666ZM13.8413 11.4871L14.5336 11.1986C14.2101 10.4223 13.4516 9.91659 12.6105 9.91659V10.6666V11.4166C12.846 11.4166 13.0584 11.5582 13.149 11.7756L13.8413 11.4871ZM13.1661 14.6666V15.4166C14.6527 15.4166 15.661 13.9042 15.0892 12.532L14.3969 12.8204L13.7046 13.1089C13.8647 13.4931 13.5824 13.9166 13.1661 13.9166V14.6666ZM2.602 12.8204L1.90969 12.532C1.33791 13.9042 2.34615 15.4166 3.83277 15.4166V14.6666V13.9166C3.41651 13.9166 3.13421 13.4931 3.2943 13.1089L2.602 12.8204ZM3.15755 11.4871L3.84986 11.7756C3.94043 11.5582 4.15283 11.4166 4.38832 11.4166V10.6666V9.91659C3.54728 9.91659 2.78872 10.4223 2.46524 11.1986L3.15755 11.4871Z" fill="white"/>
</svg>
