<?xml version="1.0" encoding="utf-8"?>
<!-- Generator: Adobe Illustrator 26.0.1, SVG Export Plug-In . SVG Version: 6.00 Build 0)  -->
<svg version="1.1" id="Layer_1" xmlns="http://www.w3.org/2000/svg" xmlns:xlink="http://www.w3.org/1999/xlink" x="0px" y="0px"
	 viewBox="0 0 725.3 156.7" style="enable-background:new 0 0 725.3 156.7;" xml:space="preserve">
<style type="text/css">
	.st0{fill:#FFFFFF;}
</style>
<image style="overflow:visible;enable-background:new    ;" width="1024" height="1024" xlink:href="867903D1.png"  transform="matrix(1 0 0 1 -1910.8375 -1254.3529)">
</image>
<g>
	<path class="st0" d="M333.1,138.1c-0.2,0.2-0.5,0.2-0.8,0.2c-1.6-0.3-2.9,0.4-4.3,0.9c-20,7.6-39.7,8.2-58.5-3.4
		c-1.4-0.9-2.7-1.9-4.5-1.4l0,0.1c0.2-2.9-2.2-4-3.8-5.5c-6.1-5.8-11-12.4-14.1-20.3c-6.7-17-6.6-34.4-2.9-51.9
		c3.9-18.8,15.4-32,32.5-40.3c9.3-4.5,19.3-3.8,29.3-4.4c19-1,41.1,14.4,47.6,33.9c1.1,3.4,0.4,5.2-3.4,5.2c-5.5,0-11-0.2-16.5,0.1
		c-3.3,0.1-5.2-0.9-6.6-4c-1.5-3.3-2.9-7.2-5.6-9.3c-8.8-7.3-19.2-8.3-30-5.6c-0.9,0.2-1.2,1-1.3,1.9l-0.4,0.1l-0.4,0
		c-0.4,0.3-0.8,0.6-1.2,0.9l-0.4,0.1l-0.4,0c-0.4,0.3-0.8,0.6-1.2,0.9c-0.6,0.4-1.2,0.7-1.8,1.1c-2.1,0-3.2,0.9-3.1,3l0,0
		c-1,0-2.1-0.2-2.8,0.7c-2.8,3.5-5.9,6.7-7.4,11.1c-3.4,10.1-5,20.2-4.2,31.1c1.1,13.3,5.4,24.4,15.1,33.5
		c9.8,9.1,21.1,11.1,33.2,6.3c11.2-4.4,16.1-14.2,18.4-25.4c0.5-2.2-0.7-2.2-2-2.4l-0.2,0.1l-0.1-0.2c-0.6-2.4-2.5-1.8-4-1.8
		c-5.8-0.1-11.6-0.1-17.5,0c-2.5,0.1-3.6-0.8-3.6-3.4c0.1-4.3,0.1-8.6,0-13c-0.1-2.4,0.6-3.7,3.4-3.6c14.8,0.1,29.6,0.1,44.4,0
		c2.8,0,3.7,1.3,3.1,3.7c-1.5,6.1-0.8,12.2-0.8,18.3c0.1,16.4-7.5,28.8-19.8,38.8C334.9,135.2,333.1,135.9,333.1,138.1z"/>
	<path class="st0" d="M643,102.2c-0.1,0.3-0.2,0.7-0.3,1.1c-1.7,0.9-1.4,2.1-1,3.8c1,3.8,3.3,6.8,5.7,9.8
		c8.4,10.5,28.7,15.6,38.6,1.2c1.1-1.7,2.3-1.9,4.2-1.4c6.3,1.8,12.6,3.3,19,4.9c-0.5,2.6-3.3,4-3.1,6.7c0,0,0.1-0.1,0.1-0.1
		c-0.4,0.4-0.7,0.8-1.1,1.1l0.1-0.1c-2.2,0.1-3.5,0.8-2.6,3.3l-0.2-0.1c-0.8-0.1-1.1,0.3-1,1.1l0-0.1c-0.7,0-1,0.3-1.2,0.9l0.1-0.1
		c-0.6,0.1-1.4,0-1.9,0.4c-7.3,5.5-15.3,8.8-24.5,9.9c-15,1.7-28.4-1.8-39.6-11.9c-13.5-12.2-17.8-27.7-15.2-45.5
		c2.1-14.6,10.1-25,21.9-32.8c9-6,19.4-7.7,30-7c29.6,1.8,41.5,23.5,40.9,49.2c-0.1,3.3-1.8,3.8-4.7,3.7
		c-16.8-0.1-33.6-0.1-50.4-0.1c-4,0-8-0.1-12,0.1C643.6,100.3,641.4,99.8,643,102.2z M650,71.3c-0.3,0.3-0.7,0.7-1,1s-0.7,0.7-1,1
		c-3,0.8-3.9,3.4-4.8,5.8c-2.1,5-1.2,6.2,4.2,6.2c11.8,0,23.6,0.1,35.4,0c5.4,0,7-2.4,5.4-7.7c-2.7-8.7-10.3-14.6-19.9-14.2
		c-5.5,0.2-11.6,0.3-15.3,5.9c-0.8,0-1.6,0.1-2,1C650.7,70.6,650.4,70.9,650,71.3z"/>
	<path class="st0" d="M103.3,71.4c7.7,0,15.3,0.1,23-0.1c2.6,0,3.6,0.7,3.4,3.4c-0.5,9.3-0.2,18.7-1.4,27.9
		c-2.9,23.7-23.4,41-48.2,43.7c-39.8,4.3-69-27-68.5-63.7c0.2-13.5,0.1-27,6.4-39.4C28.6,22.7,45,11.4,68.3,10.1
		C85,9.2,100,12.7,112.7,24.1c7.6,6.8,12.1,15.3,15,24.9c0.8,2.7,0.4,4-2.8,3.9c-7.7-0.3-15.3-0.4-23-0.4c-2,0-3.2-0.3-4-2.6
		C90.8,28.7,63,28.9,51.7,41.3c-1.6,1.7-3,3.5-4.4,5.4C37,60.2,35.8,96.5,51.1,112.5c6.5,6.8,14.1,10.9,23,11.5
		c12.8,0.8,24.4-9,27.8-22.2c1.8-6.6,1.8-6.6-5.5-6.6c-5.8,0-11.7-0.1-17.5,0.1c-2.4,0.1-3.2-0.5-3.1-3c0.2-5.7,0.2-11.3,0-17
		c-0.1-3.1,0.9-4,4-3.9C87.7,71.6,95.5,71.5,103.3,71.4C103.3,71.4,103.3,71.4,103.3,71.4z M103.1,73.2c-6.7,0-13.3,0-20,0
		c-0.2,0-0.3,0-0.5,0c-3.1-0.3-4.7,1-4.6,4.3c0.1,4.2,0.1,8.3,0,12.5c-0.1,2.4,0.9,3.3,3.3,3.2c4.7-0.1,9.3,0.2,14-0.1
		c12.8-0.6,10.7,2.1,7.5,11.2c-4.6,13.2-14.8,20.7-26.7,20.8c-17.5,0.1-28.1-9.8-34.3-24.7c-5.5-13-5-26.8-2.3-40.2
		c2.1-10.7,8-20,17.7-25.4c13.1-7.3,33.9-5.8,41.8,12.6c0.7,1.5,1.3,2.6,3.1,2.7c6.8,0.3,13.6,0.7,20.4,1c3,0.1,3.7-1.2,2.8-4.1
		c-4.1-12.8-12.2-22.1-23.8-28.8c-14.7-8.4-30.7-7.9-46-4.3c-18.2,4.3-30.8,16.7-37.3,34.3c-4.9,13.4-5.5,27.4-4.1,41.6
		c2.2,21.3,12.2,37.4,30.9,48.3c10.5,6.1,21.8,6.5,33.3,6.1c19.7-0.8,34.4-9.8,43.8-27.1c7.1-13,4.8-27.5,5.9-41.4
		c0.2-2.8-2.2-2.4-3.9-2.4C117.1,73.2,110.1,73.2,103.1,73.2z"/>
	<path class="st0" d="M600.1,57c5.8,4.6,6.7,11.4,8.1,18c1,4.4,0.8,8.9,0.8,13.4c0,17-0.2,34,0,51c0.1,4.1-1.2,5.1-5,4.9
		c-5.5-0.3-11-0.3-16.5,0c-3.7,0.2-4.6-1.2-4.6-4.6c0.1-15.2,0-30.3,0-45.5c0-4.5-0.1-8.9-1.1-13.3c-1.7-7.3-7.4-12.4-14.7-12.7
		c-7.8-0.3-13.3,3.5-15.7,11.1c-1,3.3-1.5,6.8-1.5,10.3c0,16.7-0.1,33.3,0,50c0,3.7-1,4.9-4.7,4.7c-5.8-0.3-11.7-0.2-17.5,0
		c-3.1,0.1-3.9-0.8-3.9-3.9c0.2-15.5,0.2-31,0.3-46.5c0-2.3,0-4.7-0.2-7c-0.8-12-7.4-19-17.6-18.7c-9.3,0.2-16.2,8.4-16.4,19.7
		c-0.2,17-0.4,34-0.2,51c0,4.5-1.1,5.8-5.5,5.5c-5.6-0.4-11.3-0.2-17-0.1c-2.6,0.1-3.5-0.6-3.5-3.3c0.5-30.5-0.3-61,0.8-91.4
		c0.1-2.1,0.9-2.4,2.7-2.4c6.7,0.1,13.3,0.1,20,0c2.3,0,2.9,0.8,2.7,2.9c-0.1,2.3,0,4.6,0,7.7c5.3-5.9,11.2-10.1,18.9-11.7
		c12.7-2.6,23.8,0.3,32.9,9.7c2.2,2.3,3.4,2.4,5.8,0.1c12.4-11.8,31.9-14.1,45.6-5.6C596.1,52,599.1,53.6,600.1,57
		c-3.3,0.1-4.4-3.1-6.7-4.6c-11.1-7.6-32-8.1-44.6,4.7c-3.8,3.8-5.9,2.6-8.9-0.4c-13.5-13.2-32.3-13.2-45.8-0.2
		c-1.2,1.2-2.3,3.3-4.5,2.3c-2.1-1-1.8-3.1-1.6-4.8c0.4-3.7-0.9-5.1-4.7-4.8c-4.1,0.3-8.3,0.2-12.5,0c-3.3-0.1-4.9,1-4.8,4.5
		c0.1,28.1,0,56.3,0,84.4c0,2.9,0.8,4.2,4,4.1c4.5-0.2,9-0.3,13.5,0c3.9,0.3,4.7-1.4,4.7-4.9c-0.2-14.8,0-29.6-0.1-44.5
		c0-3.9,0.3-7.7,1.2-11.3c1.9-7.7,6.5-13.1,14.4-14.9c6.9-1.6,12.9,0.3,17.3,6c3.7,4.8,5.1,10.4,5.1,16.3c0.1,16.3,0.1,32.6,0,49
		c0,3.2,0.9,4.5,4.2,4.4c4-0.2,8-0.3,12,0c4.4,0.4,6.1-0.9,6-5.7c-0.3-15.3-0.1-30.6-0.1-46c0-4.6,0.9-9,2.2-13.2
		c2.7-8.6,12.3-13.2,21-10.3C580,70,584.9,77.5,585,88.5c0.1,16.3,0.1,32.6,0,49c0,3.8,1.2,5,4.9,4.8c4.1-0.3,8.3-0.3,12.5,0
		c3.8,0.3,4.8-1.1,4.8-4.8c-0.2-19.7-0.1-39.3-0.1-58.9c0-1.5-0.5-2.9-0.5-4.4C606.3,67.7,601.3,63,600.1,57z"/>
	<path class="st0" d="M429,137.3c-1.9-0.8-2.6,0.9-3.8,1.7c-10.7,7-22.6,8.9-34.9,6.8c-14.4-2.5-23.2-14.5-23.6-29.7
		c-0.4-14.4,10.2-25.7,24.2-28.8c9.8-2.2,19.9-1.5,29.6-3.9c4.2-1,8.3-2,8.9-7.2c0.6-4.6-2.1-8.4-7.2-10.8
		c-11.1-5.1-20.7-1.9-27,9.1c-0.9,1.5-1.9,1.5-3.3,1.5c-6.3,0-12.7-0.1-19,0.1c-3.2,0.1-3.6-1-2.9-3.8c2.9-11.5,10.1-19.5,21-23.5
		c14-5.2,28.4-5.6,42.5-0.6c12.4,4.4,19.4,13.7,20.7,26.8c1.7,17.8,0.5,35.6,0.6,53.4c0,4.3-0.5,8.7,0.5,12.9
		c0.5,2.3,0.1,2.9-2.3,2.9c-6.8-0.1-13.6,0-20.5,0C426.8,144.2,429.9,139.7,429,137.3c2.3,6.3,7.7,4.9,12.5,4.9c2.7,0,5.3-0.1,8,0
		c2.6,0.1,3.6-0.9,3.5-3.5c-0.6-21.4,1.3-42.9-1-64.3c-1.2-11.3-7.3-19.5-17.8-23.9c-12.2-5.1-25.2-4.7-37.7-1.7
		c-11.3,2.7-20.1,9.3-23.9,21.1c-1,3-0.5,4.4,3,4.3c4.8-0.1,9.7,0,14.5,0c1.5,0,2.8-0.2,3.8-1.8c7-11.1,17.5-14.1,29.4-8.5
		c5.6,2.6,8.5,7.5,7.8,13.2c-0.5,4.4-4,6.8-10.5,8.3c-8.1,1.8-16.5,1.6-24.6,2.8c-15.1,2.3-28.5,11.8-27,30.7
		c1.1,13.7,11.9,25,25.7,25.4c11.3,0.4,21.8-1.4,31.3-8C427.1,135.5,428.7,134.6,429,137.3z"/>
	<path class="st0" d="M643,102.2c-1.6-2.4,0.6-2,1.6-2c4-0.1,8-0.1,12-0.1c16.8,0,33.6-0.1,50.4,0.1c2.9,0,4.6-0.4,4.7-3.7
		c0.6-25.7-11.3-47.5-40.9-49.2c-10.6-0.6-20.9,1.1-30,7C629,62.2,621,72.6,618.9,87.1c-2.6,17.9,1.8,33.3,15.2,45.5
		c11.2,10.1,24.6,13.6,39.6,11.9c9.2-1.1,17.2-4.4,24.5-9.9c0.5-0.4,1.3-0.3,1.9-0.4c-5.4,6.7-13,9.7-21,11.2
		c-20.5,3.9-38.4-1-52-17.6c-24.2-29.7-7.5-74.9,30.1-81.7c13.5-2.5,26.4-0.9,38,7.2c13.5,9.4,17.4,23.4,18.2,38.7
		c0.5,9.8,0.2,9.8-9.4,9.8C683.7,102,663.3,101.3,643,102.2z"/>
	<path class="st0" d="M290,34.2c0.1-0.9,0.4-1.6,1.3-1.9c10.9-2.7,21.2-1.7,30,5.6c2.6,2.2,4.1,6,5.6,9.3c1.4,3.1,3.3,4.1,6.6,4
		c5.5-0.2,11-0.1,16.5-0.1c3.8,0,4.5-1.8,3.4-5.2c-6.4-19.5-28.6-34.9-47.6-33.9c-10,0.5-20-0.1-29.3,4.4
		C259.5,24.8,248,38,244.1,56.8c-3.6,17.4-3.8,34.9,2.9,51.9c3.1,7.9,8,14.5,14.1,20.3c1.6,1.5,4,2.7,3.8,5.5
		c-11.8-8.4-19.1-19.9-22.5-33.7c-3.7-15.3-3.7-30.8,0.2-46c6.6-25.6,28.8-46.9,63.7-44.6c22.1,1.5,37.9,12.1,47.3,32.1
		c5,10.5,4.8,10.6-6.8,10.4c-2.2,0-4.4-0.2-6.5,0c-7.6,0.7-13.2-0.1-17.5-8.7c-5.8-11.8-18-11.4-29.5-10.2
		C292.3,33.8,291.2,34,290,34.2z"/>
	<path class="st0" d="M217.2,134.3c-9.4,9.9-21.3,12.7-34.4,12.3c-19.2-0.5-38.9-12.7-44.2-36.4c-7.7-34.7,12.6-59.8,38.5-64.4
		c34.3-6.1,60.1,20.4,57.1,54.5c-0.9,10.4-3.8,20-10.7,28.1c-1.6,1.9-2.8,4.2-5.4,4.9l-0.1-0.1c0-1.7,1.3-2.6,2.2-3.7
		c5.2-6.7,9.9-13.5,11.1-22.3c0.9-6.3,0.9-12.6,0.5-18.9c-0.7-12.5-6.3-22.8-15.8-31c-9.2-7.9-19.8-10.5-31.8-10.2
		c-15.9,0.3-27.6,7.6-36.6,19.8c-7.1,9.8-9.2,21-8.8,33c0.6,16.2,7.7,29.1,20.7,37.8c14.1,9.5,35.1,10.4,50.4,0.1
		c2.2-1.4,4.1-3.4,7-3.7L217.2,134.3z"/>
	<path class="st0" d="M333.1,138.1c0.1-2.2,1.8-2.9,3.2-4.1c12.3-10,19.9-22.3,19.8-38.8c-0.1-6.1-0.8-12.3,0.8-18.3
		c0.6-2.4-0.3-3.7-3.1-3.7c-14.8,0.1-29.6,0.1-44.4,0c-2.7,0-3.4,1.2-3.4,3.6c0.1,4.3,0.1,8.6,0,13c-0.1,2.7,1,3.5,3.6,3.4
		c5.8-0.1,11.6-0.1,17.5,0c1.6,0,3.5-0.6,4,1.8c-7.8,0.1-15.6,0.1-23.5,0.3c-2.5,0.1-3.1-0.9-3.1-3.2c0.1-5.8,0.1-11.7,0.1-17.5
		c0-2.3,0.8-3.3,3.2-3.3c15.8,0.1,31.6,0.1,47.5-0.1c2.6,0,3,1,2.9,3.2c-0.5,10.1,0.2,20.3-1.4,30.2
		C354.4,119.4,346.2,130.7,333.1,138.1z"/>
	<path class="st0" d="M331.5,95.1c1.3,0.2,2.5,0.2,2,2.4c-2.4,11.3-7.2,21-18.4,25.4c-12,4.7-23.4,2.8-33.2-6.3
		c-9.7-9.1-14.1-20.2-15.1-33.5c-0.9-10.9,0.7-21,4.2-31.1c1.5-4.4,4.7-7.6,7.4-11.1c0.7-0.9,1.8-0.7,2.8-0.7
		c-18.3,17.3-16.2,58.5,0.3,73.8c9.5,8.8,20.1,11.8,32.1,7.4c11.6-4.2,16.1-14.1,18.2-25.4C331.9,95.8,331.6,95.4,331.5,95.1z"/>
	<path class="st0" d="M706.1,128.4c-0.2-2.8,2.6-4.1,3.1-6.7c-6.3-1.6-12.7-3.2-19-4.9c-1.9-0.5-3-0.3-4.2,1.4
		c-9.9,14.4-30.2,9.3-38.6-1.2c-2.3-2.9-4.7-5.9-5.7-9.8c-0.4-1.6-0.7-2.9,1-3.8c3.5,15.1,18.9,25.1,32.1,21
		c4.6-1.4,7.7-4.7,10.4-8.1c1.8-2.1,3-2.3,5.3-1.4c5.9,2.2,12,3.8,18.3,4.7c2.9,0.4,4,1.5,1.8,4
		C709.3,125.2,708.6,127.6,706.1,128.4z"/>
	<path class="st0" d="M264.9,134.3c1.8-0.5,3.1,0.6,4.5,1.4c18.9,11.6,38.5,11.1,58.5,3.4c1.4-0.5,2.7-1.2,4.3-0.9
		c-5.9,5.3-13.2,6.4-20.6,7.4C294.5,148.1,278.6,146,264.9,134.3z"/>
	<path class="st0" d="M281.1,40.3c0-2.1,1.1-3.1,3.1-3C283.6,38.7,282.4,39.6,281.1,40.3z"/>
	<path class="st0" d="M702.6,132.6c-1-2.5,0.5-3.2,2.6-3.3C704.9,130.9,704,131.9,702.6,132.6z"/>
	<path class="st0" d="M705,129.4c0.4-0.4,0.7-0.8,1.1-1.1C705.8,128.6,705.4,129,705,129.4z"/>
	<path class="st0" d="M701.3,133.6c-0.1-0.8,0.3-1.1,1-1.1C702.3,133.2,702,133.5,701.3,133.6z"/>
	<path class="st0" d="M700,134.4c0.2-0.6,0.5-1,1.2-0.9C701.2,134.2,700.5,134.2,700,134.4z"/>
	<path class="st0" d="M286.1,36.2c0.4-0.3,0.8-0.6,1.2-0.9C287,35.8,286.8,36.4,286.1,36.2z"/>
	<path class="st0" d="M288.1,35.2c0.4-0.3,0.8-0.6,1.2-0.9C289,34.8,288.8,35.3,288.1,35.2z"/>
	<path class="st0" d="M218.2,133.3c-0.3,0.3-0.7,0.7-1,1l-0.1-0.1c0.3-0.3,0.7-0.7,1-1L218.2,133.3z"/>
	<path class="st0" d="M653,69.3c3.7-5.6,9.8-5.7,15.3-5.9c9.6-0.4,17.2,5.5,19.9,14.2c1.6,5.2,0,7.7-5.4,7.7c-11.8,0-23.6,0-35.4,0
		c-5.5,0-6.3-1.2-4.2-6.2c1-2.4,1.8-5,4.8-5.8l0.1,0.1c-0.3,2.2-2,3.8-3,5.7c-1.4,2.8-1.9,4.4,2.5,4.3c11.6-0.2,23.3-0.2,34.9,0
		c4.5,0.1,5.1-1.9,4-5.5c-1.9-6-6.2-9.6-12-11.5C667,63.7,659.9,65.8,653,69.3L653,69.3z"/>
	<path class="st0" d="M651,70.3c0.4-0.9,1.1-1,2-1l0.1,0.1C652.7,70.2,651.9,70.2,651,70.3L651,70.3z"/>
	<path class="st0" d="M648,73.3c0.3-0.3,0.7-0.7,1-1l0.1,0.1C648.8,72.7,648.5,73,648,73.3C648.1,73.3,648,73.3,648,73.3z"/>
	<path class="st0" d="M649,72.3c0.3-0.3,0.7-0.7,1-1l0.1,0.1C649.8,71.7,649.5,72,649,72.3C649.1,72.3,649,72.3,649,72.3z"/>
	<path class="st0" d="M650,71.3c0.3-0.3,0.7-0.7,1-1l0.1,0.1C650.8,70.7,650.5,71,650,71.3L650,71.3z"/>
	<path class="st0" d="M103.1,73.2c7,0,14,0,21,0c1.8,0,4.2-0.4,3.9,2.4c-1.2,13.9,1.1,28.4-5.9,41.4c-9.4,17.3-24.1,26.3-43.8,27.1
		c-11.6,0.5-22.9,0-33.3-6.1C26.3,127.3,16.3,111.2,14,89.9c-1.5-14.2-0.9-28.2,4.1-41.6c6.5-17.6,19.1-30,37.3-34.3
		c15.4-3.6,31.3-4.1,46,4.3c11.6,6.6,19.7,15.9,23.8,28.8c0.9,2.9,0.2,4.2-2.8,4.1c-6.8-0.3-13.6-0.6-20.4-1
		c-1.8-0.1-2.4-1.2-3.1-2.7c-7.9-18.4-28.8-19.9-41.8-12.6c-9.8,5.4-15.7,14.7-17.7,25.4c-2.6,13.4-3.1,27.2,2.3,40.2
		c6.2,14.9,16.8,24.8,34.3,24.7c12-0.1,22.1-7.7,26.7-20.8c3.2-9.1,5.3-11.8-7.5-11.2c-4.7,0.2-9.3,0-14,0.1c-2.3,0-3.3-0.9-3.3-3.2
		c0.1-4.2,0.1-8.3,0-12.5c-0.1-3.3,1.4-4.5,4.6-4.3c0.2,0,0.3,0,0.5,0C89.8,73.2,96.4,73.2,103.1,73.2z"/>
	<path class="st0" d="M600.1,57c1.2,6,6.2,10.6,6.3,17c0,1.5,0.5,2.9,0.5,4.4c0,19.7-0.1,39.3,0.1,59c0,3.7-1,5.1-4.8,4.8
		c-4.1-0.3-8.3-0.3-12.5,0c-3.7,0.2-4.9-1-4.9-4.8c0.2-16.3,0.1-32.6,0-49c-0.1-11-5-18.6-13.8-21.4c-8.7-2.8-18.3,1.7-21,10.3
		c-1.3,4.2-2.3,8.6-2.2,13.2c0.1,15.3-0.2,30.7,0.1,46c0.1,4.8-1.5,6.1-6,5.7c-4-0.3-8-0.2-12,0c-3.4,0.2-4.2-1.2-4.2-4.4
		c0.1-16.3,0.1-32.6,0-49c0-5.9-1.4-11.6-5.1-16.3c-4.4-5.7-10.5-7.6-17.3-6c-7.9,1.8-12.5,7.2-14.4,14.9c-0.9,3.7-1.2,7.5-1.2,11.3
		c0.1,14.8-0.1,29.6,0.1,44.5c0,3.6-0.7,5.2-4.7,4.9c-4.5-0.3-9-0.2-13.5,0c-3.1,0.1-4-1.2-4-4.1c0.1-28.1,0.1-56.3,0-84.4
		c0-3.6,1.5-4.7,4.8-4.5c4.2,0.2,8.3,0.3,12.5,0c3.8-0.3,5.2,1.1,4.7,4.8c-0.2,1.7-0.6,3.9,1.6,4.8c2.2,1,3.3-1.1,4.5-2.3
		c13.5-13.1,32.3-13.1,45.8,0.2c3,3,5.2,4.2,8.9,0.4c12.6-12.8,33.5-12.3,44.6-4.7C595.7,54,596.8,57.2,600.1,57
		C600.2,57.1,600.1,57,600.1,57z"/>
	<path class="st0" d="M429,137.3c-0.3-2.7-1.9-1.8-3.1-0.9c-9.5,6.5-20,8.3-31.3,8c-13.8-0.4-24.7-11.7-25.7-25.4
		c-1.5-18.9,11.9-28.4,27-30.7c8.2-1.2,16.5-1,24.6-2.8c6.5-1.5,10-3.8,10.5-8.3c0.7-5.7-2.2-10.6-7.8-13.2
		c-11.9-5.5-22.4-2.5-29.4,8.5c-1,1.6-2.2,1.8-3.8,1.8c-4.8,0-9.7-0.1-14.5,0c-3.4,0.1-3.9-1.3-3-4.3c3.8-11.8,12.6-18.5,23.9-21.1
		c12.5-3,25.4-3.3,37.7,1.7c10.5,4.3,16.5,12.5,17.8,23.9c2.3,21.4,0.4,42.9,1,64.3c0.1,2.6-0.9,3.6-3.5,3.5c-2.7-0.1-5.3,0-8,0
		C436.7,142.2,431.3,143.6,429,137.3L429,137.3z M425.6,119.1c4-1.9,5.7-6.3,4-10.1c0.3-8.4,0.3-8.4-6.1-7.7
		c-8.8-0.5-17.2,2.1-25.8,3.2c-1.5,0.2-2.8,1.1-2.6,3c-0.3,0.2-0.6,0.4-1,0.7c-4.2,1.9-5.5,6-3.5,11.2c2.9,7.4,11.8,11.7,20.8,9.4
		c4.4-1.1,9.7-1.2,11.5-6.9C423.8,120.9,424.7,120,425.6,119.1z"/>
	<path class="st0" d="M218.1,133.2c-0.3,0.3-0.7,0.7-1,1c-2.9,0.2-4.8,2.2-7,3.7c-15.3,10.3-36.2,9.3-50.4-0.1
		c-13-8.7-20.1-21.6-20.7-37.8c-0.5-12,1.6-23.2,8.8-33c9-12.3,20.7-19.5,36.6-19.8c12-0.3,22.7,2.3,31.8,10.2
		c9.4,8.2,15.1,18.5,15.8,31c0.3,6.2,0.4,12.5-0.5,18.9c-1.2,8.9-5.9,15.7-11.1,22.3C219.4,130.6,218,131.5,218.1,133.2z
		 M170.1,73.4l0.1-0.1c-0.4,0.4-0.7,0.8-1.1,1.3c0.1,0.3,0,0.5-0.1,0.7c-2.9,0.1-3.3,2.6-4.1,4.4c-4.5,11.4-4.4,23,0.6,33.9
		c7.1,15.8,25.7,18.6,37.4,6.2c9.8-10.4,9.7-37.2-0.2-47.4c-1.6-1.6-3-3.7-5.8-3.1l0.1,0.1c0.2-1.4-0.7-2-1.8-2.6
		c-4.5-2.7-16-2.2-20.3,0.9c-0.9,0.7-1.9,1.3-1.7,2.7l0.1-0.1c-0.4,0.4-0.7,0.7-1.1,1.1l0.1-0.1c-0.4,0.4-0.7,0.7-1.1,1.1l0.1-0.1
		C170.9,72.7,170.5,73,170.1,73.4z"/>
	<path class="st0" d="M394.2,108.3c-5.4,8.3-0.9,17.6,9.2,18.9c7.3,1,13.7-1.2,19.6-5.3c-1.7,5.7-7.1,5.8-11.5,6.9
		c-9,2.3-17.9-1.9-20.8-9.3C388.7,114.2,390,110.2,394.2,108.3z"/>
	<path class="st0" d="M425.6,119.1c1.9-3.1,3.3-6.5,4-10.1C431.4,112.8,429.6,117.2,425.6,119.1z"/>
	<path class="st0" d="M169,75.2c-3.2,6.7-6.4,13.6-5.8,21.2c0.5,6.9,2,13.8,5.9,19.7c8.6,13,27,12.5,34.9-0.9
		c8.1-13.8,4.7-35.5-7.2-46c2.8-0.7,4.2,1.4,5.8,3.1c9.9,10.2,10.1,37,0.2,47.4c-11.7,12.4-30.3,9.6-37.4-6.2
		c-4.9-11-5.1-22.6-0.6-33.9C165.7,77.8,166.2,75.3,169,75.2z"/>
	<path class="st0" d="M197,69.4c-8.1-4.5-16-3.2-23.8,1c-0.2-1.4,0.8-2,1.7-2.7c4.3-3.1,15.8-3.7,20.3-0.9
		C196.2,67.4,197.1,68,197,69.4z"/>
	<path class="st0" d="M172.3,71.3c-0.4,0.4-0.7,0.7-1.1,1.1C171.5,72,171.9,71.7,172.3,71.3z"/>
	<path class="st0" d="M170.2,73.3c-0.4,0.4-0.7,0.8-1.1,1.3C169.5,74.1,169.9,73.7,170.2,73.3z"/>
	<path class="st0" d="M173.3,70.3c-0.4,0.4-0.7,0.7-1.1,1.1C172.5,71,172.9,70.7,173.3,70.3z"/>
	<path class="st0" d="M171.3,72.3c-0.4,0.4-0.7,0.7-1.1,1.1C170.5,73,170.9,72.7,171.3,72.3z"/>
</g>
</svg>
